<svg width="40" height="56" viewBox="0 0 40 56" fill="none" xmlns="http://www.w3.org/2000/svg">
<path d="M23.3538 28.3537L18.3538 33.3538C18.3073 33.4002 18.2521 33.4371 18.1915 33.4622C18.1308 33.4873 18.0657 33.5003 18 33.5003C17.9343 33.5003 17.8693 33.4873 17.8086 33.4622C17.7479 33.4371 17.6927 33.4002 17.6463 33.3538C17.5998 33.3073 17.5629 33.2521 17.5378 33.1914C17.5127 33.1308 17.4997 33.0657 17.4997 33C17.4997 32.9343 17.5127 32.8692 17.5378 32.8086C17.5629 32.7479 17.5998 32.6927 17.6463 32.6462L22.2931 28L17.6463 23.3537C17.5524 23.2599 17.4997 23.1327 17.4997 23C17.4997 22.8673 17.5524 22.7401 17.6463 22.6462C17.7401 22.5524 17.8673 22.4997 18 22.4997C18.1327 22.4997 18.2599 22.5524 18.3538 22.6462L23.3538 27.6462C23.4002 27.6927 23.4371 27.7478 23.4623 27.8085C23.4874 27.8692 23.5004 27.9343 23.5004 28C23.5004 28.0657 23.4874 28.1308 23.4623 28.1915C23.4371 28.2522 23.4002 28.3073 23.3538 28.3537Z" fill="#748181"/>
</svg>
