<svg width="40" height="40" viewBox="0 0 40 40" fill="none" xmlns="http://www.w3.org/2000/svg">
<rect x="0.5" y="0.5" width="39" height="39" rx="19.5" fill="white"/>
<rect x="0.5" y="0.5" width="39" height="39" rx="19.5" stroke="#ECEEEE"/>
<g clip-path="url(#clip0_16_2363)">
<path d="M29 22.25V27.5C29 27.8978 28.842 28.2794 28.5607 28.5607C28.2794 28.842 27.8978 29 27.5 29H12.5C12.1022 29 11.7206 28.842 11.4393 28.5607C11.158 28.2794 11 27.8978 11 27.5V22.25C11 22.0511 11.079 21.8603 11.2197 21.7197C11.3603 21.579 11.5511 21.5 11.75 21.5C11.9489 21.5 12.1397 21.579 12.2803 21.7197C12.421 21.8603 12.5 22.0511 12.5 22.25V27.5H27.5V22.25C27.5 22.0511 27.579 21.8603 27.7197 21.7197C27.8603 21.579 28.0511 21.5 28.25 21.5C28.4489 21.5 28.6397 21.579 28.7803 21.7197C28.921 21.8603 29 22.0511 29 22.25ZM19.4694 22.7806C19.539 22.8504 19.6217 22.9057 19.7128 22.9434C19.8038 22.9812 19.9014 23.0006 20 23.0006C20.0986 23.0006 20.1962 22.9812 20.2872 22.9434C20.3783 22.9057 20.461 22.8504 20.5306 22.7806L24.2806 19.0306C24.3503 18.9609 24.4056 18.8782 24.4433 18.7872C24.481 18.6961 24.5004 18.5985 24.5004 18.5C24.5004 18.4015 24.481 18.3039 24.4433 18.2128C24.4056 18.1218 24.3503 18.0391 24.2806 17.9694C24.2109 17.8997 24.1282 17.8444 24.0372 17.8067C23.9461 17.769 23.8485 17.7496 23.75 17.7496C23.6515 17.7496 23.5539 17.769 23.4628 17.8067C23.3718 17.8444 23.2891 17.8997 23.2194 17.9694L20.75 20.4397V11.75C20.75 11.5511 20.671 11.3603 20.5303 11.2197C20.3897 11.079 20.1989 11 20 11C19.8011 11 19.6103 11.079 19.4697 11.2197C19.329 11.3603 19.25 11.5511 19.25 11.75V20.4397L16.7806 17.9694C16.6399 17.8286 16.449 17.7496 16.25 17.7496C16.051 17.7496 15.8601 17.8286 15.7194 17.9694C15.5786 18.1101 15.4996 18.301 15.4996 18.5C15.4996 18.699 15.5786 18.8899 15.7194 19.0306L19.4694 22.7806Z" fill="#748181"/>
</g>
<defs>
<clipPath id="clip0_16_2363">
<rect width="16" height="16" fill="white" transform="translate(12 12)"/>
</clipPath>
</defs>
</svg>
