<svg width="49" height="49" viewBox="0 0 49 49" fill="none" xmlns="http://www.w3.org/2000/svg">
<rect x="0.5" y="0.5" width="48" height="48" rx="24" fill="#FDF2F2"/>
<path d="M35.5 14.5H30.5V13.5C30.5 12.7044 30.1839 11.9413 29.6213 11.3787C29.0587 10.8161 28.2956 10.5 27.5 10.5H21.5C20.7044 10.5 19.9413 10.8161 19.3787 11.3787C18.8161 11.9413 18.5 12.7044 18.5 13.5V14.5H13.5C13.2348 14.5 12.9804 14.6054 12.7929 14.7929C12.6054 14.9804 12.5 15.2348 12.5 15.5C12.5 15.7652 12.6054 16.0196 12.7929 16.2071C12.9804 16.3946 13.2348 16.5 13.5 16.5H14.5V34.5C14.5 35.0304 14.7107 35.5391 15.0858 35.9142C15.4609 36.2893 15.9696 36.5 16.5 36.5H32.5C33.0304 36.5 33.5391 36.2893 33.9142 35.9142C34.2893 35.5391 34.5 35.0304 34.5 34.5V16.5H35.5C35.7652 16.5 36.0196 16.3946 36.2071 16.2071C36.3946 16.0196 36.5 15.7652 36.5 15.5C36.5 15.2348 36.3946 14.9804 36.2071 14.7929C36.0196 14.6054 35.7652 14.5 35.5 14.5ZM20.5 13.5C20.5 13.2348 20.6054 12.9804 20.7929 12.7929C20.9804 12.6054 21.2348 12.5 21.5 12.5H27.5C27.7652 12.5 28.0196 12.6054 28.2071 12.7929C28.3946 12.9804 28.5 13.2348 28.5 13.5V14.5H20.5V13.5ZM32.5 34.5H16.5V16.5H32.5V34.5ZM22.5 21.5V29.5C22.5 29.7652 22.3946 30.0196 22.2071 30.2071C22.0196 30.3946 21.7652 30.5 21.5 30.5C21.2348 30.5 20.9804 30.3946 20.7929 30.2071C20.6054 30.0196 20.5 29.7652 20.5 29.5V21.5C20.5 21.2348 20.6054 20.9804 20.7929 20.7929C20.9804 20.6054 21.2348 20.5 21.5 20.5C21.7652 20.5 22.0196 20.6054 22.2071 20.7929C22.3946 20.9804 22.5 21.2348 22.5 21.5ZM28.5 21.5V29.5C28.5 29.7652 28.3946 30.0196 28.2071 30.2071C28.0196 30.3946 27.7652 30.5 27.5 30.5C27.2348 30.5 26.9804 30.3946 26.7929 30.2071C26.6054 30.0196 26.5 29.7652 26.5 29.5V21.5C26.5 21.2348 26.6054 20.9804 26.7929 20.7929C26.9804 20.6054 27.2348 20.5 27.5 20.5C27.7652 20.5 28.0196 20.6054 28.2071 20.7929C28.3946 20.9804 28.5 21.2348 28.5 21.5Z" fill="#DF3939"/>
</svg>
