<svg width="40" height="40" viewBox="0 0 40 40" fill="none" xmlns="http://www.w3.org/2000/svg">
<rect x="0.5" y="0.5" width="39" height="39" rx="19.5" fill="white"/>
<rect x="0.5" y="0.5" width="39" height="39" rx="19.5" stroke="#ECEEEE"/>
<path d="M26.4125 15.0956C26.3355 14.9178 26.208 14.7666 26.0458 14.6607C25.8835 14.5548 25.6937 14.4989 25.5 14.5H14.5C14.3065 14.5004 14.1172 14.5569 13.9551 14.6628C13.7931 14.7686 13.6652 14.9192 13.5871 15.0962C13.509 15.2733 13.4839 15.4692 13.5149 15.6603C13.5459 15.8513 13.6317 16.0293 13.7619 16.1725L13.7669 16.1781L18 20.6981V25.5C18 25.681 18.049 25.8586 18.142 26.0139C18.235 26.1692 18.3683 26.2963 18.5279 26.3818C18.6874 26.4672 18.8672 26.5078 19.0479 26.4991C19.2287 26.4904 19.4037 26.4328 19.5544 26.3325L21.5544 24.9987C21.6915 24.9074 21.8039 24.7836 21.8816 24.6384C21.9594 24.4932 22 24.331 22 24.1663V20.6981L26.2338 16.1781L26.2388 16.1725C26.3703 16.0299 26.4569 15.8517 26.4878 15.6602C26.5187 15.4687 26.4925 15.2723 26.4125 15.0956ZM21.2712 20.0175C21.0976 20.2016 21.0006 20.445 21 20.6981V24.1663L19 25.5V20.6981C19.0006 20.4441 18.904 20.1995 18.73 20.0144L14.5 15.5H25.5L21.2712 20.0175Z" fill="#748181"/>
</svg>
