<svg width="41" height="40" viewBox="0 0 41 40" fill="none" xmlns="http://www.w3.org/2000/svg">
<rect x="0.333344" width="40" height="40" rx="20" fill="#36A1C5" fill-opacity="0.1"/>
<path d="M31.2834 22.1C31.2046 22.1591 31.1149 22.2021 31.0195 22.2265C30.9241 22.251 30.8248 22.2564 30.7273 22.2425C30.6298 22.2285 30.536 22.1955 30.4512 22.1454C30.3665 22.0952 30.2924 22.0288 30.2334 21.95C29.7813 21.3424 29.1929 20.8494 28.5155 20.5107C27.8381 20.172 27.0907 19.9971 26.3334 20C26.1859 20 26.0417 19.9565 25.9188 19.875C25.7959 19.7934 25.6997 19.6775 25.6424 19.5416C25.6035 19.4493 25.5834 19.3502 25.5834 19.25C25.5834 19.1499 25.6035 19.0507 25.6424 18.9585C25.6997 18.8226 25.7959 18.7066 25.9188 18.6251C26.0417 18.5435 26.1859 18.5 26.3334 18.5C26.7542 18.5 27.1665 18.3819 27.5236 18.1593C27.8807 17.9366 28.1682 17.6183 28.3534 17.2404C28.5387 16.8626 28.6142 16.4403 28.5715 16.0217C28.5288 15.6031 28.3696 15.2048 28.1119 14.8721C27.8542 14.5394 27.5083 14.2857 27.1136 14.1397C26.7189 13.9937 26.2912 13.9614 25.8791 14.0463C25.4669 14.1312 25.0868 14.33 24.782 14.6202C24.4772 14.9103 24.2598 15.2801 24.1546 15.6875C24.13 15.7829 24.0868 15.8726 24.0275 15.9513C23.9683 16.03 23.8941 16.0963 23.8092 16.1464C23.7243 16.1964 23.6304 16.2293 23.5329 16.243C23.4353 16.2568 23.336 16.2512 23.2405 16.2266C23.1451 16.202 23.0555 16.1588 22.9768 16.0995C22.898 16.0403 22.8318 15.9661 22.7817 15.8812C22.7316 15.7963 22.6988 15.7024 22.685 15.6048C22.6713 15.5073 22.6769 15.4079 22.7015 15.3125C22.8475 14.7475 23.1234 14.2244 23.5072 13.7847C23.8909 13.3451 24.372 13.0011 24.9121 12.7801C25.4523 12.5591 26.0365 12.4672 26.6184 12.5118C27.2003 12.5563 27.7637 12.736 28.2639 13.0367C28.7641 13.3373 29.1872 13.7505 29.4996 14.2434C29.812 14.7363 30.0051 15.2954 30.0634 15.876C30.1217 16.4567 30.0437 17.0429 29.8356 17.5882C29.6275 18.1334 29.295 18.6225 28.8646 19.0166C29.8844 19.4581 30.771 20.1588 31.4362 21.0491C31.4953 21.1281 31.5382 21.2179 31.5625 21.3136C31.5868 21.4092 31.592 21.5086 31.5778 21.6062C31.5636 21.7039 31.5303 21.7977 31.4798 21.8825C31.4292 21.9672 31.3625 22.0411 31.2834 22.1ZM26.2321 27.875C26.2864 27.9604 26.3228 28.0558 26.3392 28.1556C26.3556 28.2555 26.3517 28.3576 26.3276 28.4558C26.3036 28.5541 26.2599 28.6464 26.1992 28.7273C26.1385 28.8083 26.0621 28.8761 25.9745 28.9267C25.8869 28.9773 25.79 29.0097 25.6896 29.0219C25.5892 29.0341 25.4873 29.0259 25.3902 28.9977C25.2931 28.9695 25.2026 28.9219 25.1243 28.8579C25.046 28.7939 24.9815 28.7146 24.9346 28.625C24.4621 27.825 23.7893 27.162 22.9824 26.7015C22.1755 26.2409 21.2624 25.9986 20.3334 25.9986C19.4043 25.9986 18.4912 26.2409 17.6843 26.7015C16.8774 27.162 16.2046 27.825 15.7321 28.625C15.6852 28.7146 15.6207 28.7939 15.5424 28.8579C15.4641 28.9219 15.3737 28.9695 15.2765 28.9977C15.1794 29.0259 15.0775 29.0341 14.9771 29.0219C14.8767 29.0097 14.7798 28.9773 14.6922 28.9267C14.6046 28.8761 14.5282 28.8083 14.4675 28.7273C14.4068 28.6464 14.3631 28.5541 14.3391 28.4558C14.315 28.3576 14.3111 28.2555 14.3275 28.1556C14.3439 28.0558 14.3803 27.9604 14.4346 27.875C15.1617 26.6257 16.2704 25.6425 17.5977 25.07C16.8508 24.4982 16.3019 23.7067 16.0282 22.8067C15.7544 21.9068 15.7695 20.9437 16.0714 20.0528C16.3733 19.1619 16.9468 18.388 17.7112 17.8399C18.4757 17.2918 19.3927 16.997 20.3334 16.997C21.274 16.997 22.191 17.2918 22.9555 17.8399C23.7199 18.388 24.2934 19.1619 24.5953 20.0528C24.8972 20.9437 24.9123 21.9068 24.6385 22.8067C24.3648 23.7067 23.8159 24.4982 23.069 25.07C24.3963 25.6425 25.505 26.6257 26.2321 27.875ZM20.3334 24.5C20.9267 24.5 21.5067 24.3241 22.0001 23.9944C22.4934 23.6648 22.8779 23.1962 23.105 22.6481C23.3321 22.0999 23.3915 21.4967 23.2757 20.9147C23.16 20.3328 22.8742 19.7983 22.4547 19.3787C22.0351 18.9591 21.5006 18.6734 20.9186 18.5577C20.3367 18.4419 19.7335 18.5013 19.1853 18.7284C18.6371 18.9554 18.1686 19.34 17.8389 19.8333C17.5093 20.3267 17.3334 20.9067 17.3334 21.5C17.3334 22.2957 17.6494 23.0587 18.212 23.6213C18.7746 24.1839 19.5377 24.5 20.3334 24.5ZM15.0834 19.25C15.0834 19.0511 15.0043 18.8603 14.8637 18.7197C14.723 18.579 14.5323 18.5 14.3334 18.5C13.9125 18.5 13.5002 18.3819 13.1431 18.1593C12.786 17.9366 12.4985 17.6183 12.3133 17.2404C12.128 16.8626 12.0525 16.4403 12.0952 16.0217C12.1379 15.6031 12.2971 15.2048 12.5548 14.8721C12.8125 14.5394 13.1584 14.2857 13.5531 14.1397C13.9478 13.9937 14.3755 13.9614 14.7876 14.0463C15.1998 14.1312 15.5799 14.33 15.8847 14.6202C16.1895 14.9103 16.4069 15.2801 16.5121 15.6875C16.5618 15.8802 16.6861 16.0453 16.8575 16.1464C17.0289 16.2474 17.2335 16.2763 17.4262 16.2266C17.6189 16.1768 17.7839 16.0526 17.885 15.8812C17.9861 15.7098 18.015 15.5052 17.9652 15.3125C17.8192 14.7475 17.5433 14.2244 17.1596 13.7847C16.7758 13.3451 16.2947 13.0011 15.7546 12.7801C15.2144 12.5591 14.6302 12.4672 14.0483 12.5118C13.4664 12.5563 12.903 12.736 12.4028 13.0367C11.9026 13.3373 11.4795 13.7505 11.1671 14.2434C10.8547 14.7363 10.6616 15.2954 10.6033 15.876C10.545 16.4567 10.623 17.0429 10.8311 17.5882C11.0392 18.1334 11.3717 18.6225 11.8021 19.0166C10.7833 19.4586 9.89777 20.1592 9.23335 21.0491C9.11388 21.2082 9.06252 21.4083 9.09056 21.6053C9.1186 21.8023 9.22375 21.9801 9.38288 22.0995C9.54201 22.219 9.74209 22.2704 9.93909 22.2423C10.1361 22.2143 10.3139 22.1091 10.4334 21.95C10.8854 21.3424 11.4738 20.8494 12.1512 20.5107C12.8286 20.172 13.576 19.9971 14.3334 20C14.5323 20 14.723 19.921 14.8637 19.7803C15.0043 19.6397 15.0834 19.4489 15.0834 19.25Z" fill="#36A1C5"/>
</svg>
