<svg width="708" height="900" viewBox="0 0 708 900" fill="none" xmlns="http://www.w3.org/2000/svg">
<g clip-path="url(#clip0_17_3907)">
<rect width="708" height="900" fill="#143566"/>
<rect opacity="0.24" x="538" y="739.869" width="277" height="277" rx="32" transform="rotate(-45 538 739.869)" fill="url(#paint0_linear_17_3907)"/>
<rect opacity="0.24" x="65.2446" y="367" width="114.214" height="287.025" rx="32" transform="rotate(75 65.2446 367)" fill="url(#paint1_linear_17_3907)"/>
<path d="M418.566 279.012C415.974 281.604 414.66 280.29 414.318 280.308C414.299 280.288 414.277 280.273 414.252 280.262C414.228 280.251 414.201 280.246 414.174 280.246C414.147 280.246 414.12 280.251 414.096 280.262C414.071 280.273 414.049 280.288 414.03 280.308C413.526 280.866 417.216 283.098 419.034 279.516C419.34 278.922 419.466 278.616 419.286 278.508C419.106 278.4 419.052 278.544 418.566 279.012ZM302.538 474.96C300.988 474.462 299.35 474.3 297.732 474.487C296.115 474.673 294.556 475.202 293.16 476.04V472.998C294.96 467.418 289.056 458.976 278.238 458.598C266.7 458.184 267.33 454.998 261.012 441.21C255 427.8 249.006 433.2 240.204 433.596C233.418 433.902 228.342 430.68 230.916 423.426C230.882 423.189 230.775 422.969 230.61 422.796C230.557 422.778 230.5 422.781 230.45 422.805C230.4 422.828 230.36 422.87 230.34 422.922C227.442 430.464 231.906 434.64 240.24 434.424C249.33 434.226 254.316 428.934 260.13 441.624C266.466 455.484 266.25 459.246 278.238 459.516C287.994 459.75 292.638 467.022 292.638 471.162C290.694 466.392 276.33 465.906 276.33 466.086C271.632 466.086 262.056 467.058 260.04 471.072C259.41 465.564 256.764 460.434 251.22 460.758C243.156 461.244 237.666 468.462 229.62 462.27C224.22 458.166 228.414 452.154 228.144 448.176C227.712 441.3 213.474 446.484 208.848 440.616C205.122 435.882 208.992 426.828 207.534 426.09C207.174 425.892 204.582 436.89 207.984 441.39C212.826 447.798 226.776 442.56 227.136 448.248C227.37 451.974 223.032 458.526 228.936 463.062C239.934 471.396 250.23 455.862 256.548 463.998C258.308 466.729 259.314 469.878 259.464 473.124C259.464 474.51 259.14 478.344 258.996 482.79C258.888 486.138 258.834 489.81 258.996 493.032C258.996 494.832 259.212 500.61 260.49 501.906C267.186 508.62 283.89 508.818 293.268 501.906C293.574 501.672 293.466 501.546 293.43 498C302.43 493.824 313.698 479.82 302.538 474.96ZM276.312 466.86C286.788 466.968 297.066 471.234 290.604 475.428C286.068 471.342 265.8 470.352 261.804 475.32C255.828 471.162 265.692 466.968 276.312 466.86ZM292.404 494.67V501.294C283.692 507.414 267.618 507.72 261.084 501.204C259.032 499.152 259.914 477.804 260.022 474.96C260.976 476.616 263.784 477.48 265.602 478.092C274.476 481.026 289.218 480.126 292.296 475.284C292.116 480 292.44 489.864 292.404 494.67ZM293.178 481.332C293.412 481.332 299.478 477.462 301.224 480.486C303.528 484.356 296.976 488.946 293.376 492.33C293.376 492.33 293.196 483.744 293.178 481.332ZM304.212 486.732C301.544 491.062 297.83 494.653 293.412 497.172V493.32C293.61 493.32 305.778 485.724 302.286 479.964C300.486 477.012 296.112 478.578 293.286 480.54V477.102C300.702 473.538 309.864 476.76 304.212 486.66V486.732ZM404.652 460.2C404.652 460.2 373.908 473.448 371.838 474.852C370.326 475.878 371.838 476.652 371.838 476.652V481.242C371.568 481.386 371.1 481.728 371.406 482.16C371.712 482.592 394.59 497.424 395.724 497.874C396.858 498.324 426.81 480.018 428.43 477.894C428.43 477.894 429.096 472.494 428.322 470.946C427.548 469.398 409.584 462.63 404.652 460.2ZM395.868 496.2C394.572 495.57 373.656 482.124 372.27 481.242V476.832C375.096 478.344 394.896 488.928 395.85 490.386C396.552 490.8 396.966 494.562 395.868 496.2ZM402.168 487.884L398.46 489.864C398.316 489.954 398.244 489.612 398.46 489.54C398.676 489.468 399.882 488.658 402.06 487.326C437.124 466.158 436.044 469.542 402.168 487.812V487.884ZM276.906 408C273.82 408.757 270.849 409.919 268.068 411.456C264.792 413.724 266.268 415.542 269.436 417.738C272.91 420.114 274.548 421.338 281.676 420.51C285.996 419.988 306.12 416.91 305.634 412.68C305.418 410.7 302.322 408.774 300.576 407.838C293.988 404.238 291.81 403.608 276.906 408ZM300.09 408.72C301.422 409.44 303.852 410.934 304.032 412.32C304.374 415.362 285.258 419.052 281.568 419.52C274.368 420.474 273.108 419.034 270.048 417.036C266.988 415.038 267.006 412.77 268.698 411.636C271.334 410.196 274.157 409.13 277.086 408.468C292.8 404.4 294.186 405.48 300.09 408.72ZM324.192 211.08C311.592 239.88 310.386 236.064 333.3 216.48C353.1 224.04 374.7 210.828 374.7 191.784C374.736 176.952 361.344 165 345 165C318.594 165 304.932 194.16 324.192 211.08ZM344.784 166.08C358.986 165.99 373.8 175.8 373.8 191.712C373.8 195.292 372.991 198.826 371.432 202.049C369.874 205.272 367.606 208.101 364.8 210.324C348.6 224.112 333.678 214.716 332.832 215.4L316.794 229.8C325.794 210.36 325.974 210.99 325.488 210.576C306.732 194.574 320.448 166.098 344.784 166.044V166.08ZM185.808 193.206C187.014 208.92 204.888 219.162 221.952 213.834L234.768 225.426C234.85 225.483 234.947 225.514 235.047 225.514C235.147 225.514 235.244 225.483 235.326 225.426C235.411 225.372 235.476 225.292 235.511 225.198C235.547 225.104 235.551 225.001 235.524 224.904L230.862 209.298C251.67 193.638 237.486 164.478 211.062 166.71C196.086 168.06 184.62 179.832 185.808 193.206ZM193.98 175.44C207.498 162.462 237.324 166.278 239.088 187.914C240.528 205.392 229.08 207.174 229.638 209.028L234.156 223.626L222.6 212.718C222.225 212.516 221.816 212.382 221.394 212.322C209.604 216.192 201.81 212.772 196.644 209.244C193.923 207.422 191.652 205.006 190.003 202.178C188.353 199.349 187.368 196.183 187.122 192.918C186.814 189.671 187.274 186.397 188.466 183.361C189.657 180.324 191.546 177.611 193.98 175.44Z" fill="#D3EBF3"/>
<path d="M224.904 202.404C225.753 202.395 226.564 202.055 227.166 201.456C227.767 200.858 228.112 200.049 228.126 199.2C227.622 183.18 228.99 183.864 227.208 183.846C227.208 183.738 227.316 181.668 227.316 181.542C227.307 181.434 227.257 181.333 227.177 181.26C227.097 181.186 226.993 181.146 226.884 181.146H224.616C224.562 181.146 224.509 181.157 224.46 181.178C224.411 181.199 224.366 181.23 224.329 181.268C224.292 181.307 224.264 181.353 224.245 181.403C224.226 181.453 224.218 181.507 224.22 181.56C224.22 181.74 224.346 183.63 224.382 183.81H223.302V182.532C223.302 182.046 223.464 181.128 222.924 181.146C220.008 181.146 220.134 180.948 220.332 182.568V183.81H218.892V182.01C218.892 181.632 218.982 181.092 218.478 181.11L216.3 181.2C215.742 181.2 215.904 181.884 215.976 182.586V183.756H214.176C214.147 183.198 214.147 182.64 214.176 182.082C214.176 181.02 214.176 181.164 212.628 181.182C211.08 181.2 210.99 181.056 211.17 182.604V183.738H209.37V182.1C209.37 181.722 209.37 181.182 208.938 181.2H206.76C206.706 181.2 206.653 181.211 206.604 181.232C206.555 181.253 206.51 181.284 206.473 181.322C206.436 181.361 206.408 181.407 206.389 181.457C206.37 181.507 206.362 181.561 206.364 181.614C206.364 181.812 206.472 183.414 206.508 183.702H204.708V182.586C204.708 181.848 204.87 181.182 204.312 181.2H202.044C201.99 181.2 201.937 181.211 201.888 181.232C201.839 181.253 201.794 181.284 201.757 181.322C201.72 181.361 201.692 181.407 201.673 181.457C201.654 181.507 201.646 181.561 201.648 181.614C201.648 181.812 201.738 183.414 201.774 183.666H200.28V181.578C200.28 181.02 199.47 181.164 198.714 181.182C197.094 181.182 197.076 181.038 197.256 182.604V183.684C196.698 183.684 196.014 183.504 196.014 184.062C196.32 198.858 195.258 199.866 196.968 201.576C198.282 202.8 196.824 202.566 224.904 202.404ZM225.03 181.938H226.506C226.539 182.543 226.617 183.145 226.74 183.738H224.94C224.958 183.09 225.012 182.532 225.03 181.938ZM221.034 181.938H222.6C222.6 182.118 222.6 182.37 222.834 183.738H221.034C220.926 183.45 221.034 182.316 221.034 181.938ZM216.714 181.938H218.19C218.221 182.542 218.293 183.144 218.406 183.738H216.606C216.642 183.108 216.696 182.532 216.714 181.938ZM211.944 181.938H213.42C213.452 182.542 213.524 183.143 213.636 183.738H211.8C211.8 183.108 211.926 182.496 211.944 181.938ZM207.174 181.938H208.65C208.693 182.505 208.765 183.07 208.866 183.63H207.066C207.102 183 207.156 182.478 207.174 181.938ZM202.422 181.938H203.898C203.932 182.494 204.004 183.048 204.114 183.594H202.314C202.35 183 202.404 182.478 202.422 181.938ZM198.03 181.938H199.488C199.488 182.118 199.488 182.262 199.704 183.576H197.904C197.994 182.784 198.012 182.352 198.03 181.938ZM196.86 184.386C206.544 184.386 217.92 184.26 227.622 184.152C227.262 197.562 228.558 201.72 224.904 201.684C197.454 201.522 198.66 201.954 197.598 200.892C196.536 199.83 197.13 199.2 196.86 184.386Z" fill="#D3EBF3"/>
<path d="M226.686 200.748C226.73 200.75 226.774 200.744 226.816 200.729C226.857 200.714 226.895 200.69 226.927 200.66C226.959 200.629 226.984 200.593 227.002 200.552C227.019 200.512 227.028 200.468 227.028 200.424C226.776 185.088 227.028 185.502 226.686 185.502C195.978 185.25 197.364 185.034 197.364 185.682V200.424C197.4 201 195.6 201 226.686 200.748ZM201.666 192.756H198.192V189.246L201.648 189.336V191.136C201.648 191.712 201.666 192.234 201.666 192.756ZM202.404 189.354H205.806V192.63H202.512C202.458 190.2 202.422 189.534 202.404 189.354ZM202.53 193.386H205.824C205.824 194.376 205.824 195.6 205.914 196.59H202.548C202.566 195.762 202.548 194.268 202.53 193.386ZM210 192.63H206.67C206.67 191.766 206.67 190.182 206.562 189.372H210V192.63ZM206.724 193.458H210C210 194.16 210 195.78 210.09 196.608H206.706C206.706 195.726 206.688 194.376 206.688 193.458H206.724ZM214.158 192.63H210.81C210.81 191.838 210.81 190.182 210.72 189.39H214.104C214.104 189.534 214.086 190.452 214.122 192.63H214.158ZM210.864 193.476H214.158C214.158 194.376 214.158 195.744 214.248 196.626H210.846C210.864 195.762 210.846 194.34 210.828 193.476H210.864ZM218.298 192.648H214.968C214.968 190.848 214.878 189.552 214.86 189.372H218.244C218.244 189.498 218.226 190.326 218.262 192.648H218.298ZM215.022 193.476H218.28V196.662H215.004C215.022 195.726 215.004 194.376 214.986 193.476H215.022ZM219 189.3L222.384 189.192V192.792H219.09C219.108 192.162 219 189.768 219 189.3ZM219.108 193.44H222.42C222.42 194.322 222.42 195.924 222.51 196.806L219.144 196.716C219.162 195.798 219.144 194.304 219.126 193.44H219.108ZM226.308 200.1H223.122C223.122 199.182 223.212 198.21 223.23 197.364L226.344 197.256L226.308 200.1ZM226.308 196.77H223.212V193.368H226.362L226.308 196.77ZM226.308 192.882L223.122 192.756C223.122 191.694 223.122 190.236 223.014 189.156C225.336 189.066 225.876 189.156 226.38 189.156L226.308 192.882ZM226.308 185.862V188.67H222.942C222.942 188.076 222.834 187.05 222.726 185.988L226.308 185.862ZM222.474 200.064H218.874C218.817 199.195 218.817 198.323 218.874 197.454L222.6 197.4C222.762 200.37 222.6 199.704 222.69 200.064H222.474ZM222.204 185.898V188.562H218.748C218.604 186.492 218.748 186.33 218.658 186.006L222.204 185.898ZM218.406 200.028H214.806C214.746 199.183 214.746 198.335 214.806 197.49H218.244C218.46 198.102 218.55 199.29 218.622 200.028H218.406ZM218.172 185.952C218.172 186.96 218.082 187.914 218.064 188.49H214.824C214.772 187.639 214.772 186.785 214.824 185.934C216.048 185.934 217.2 185.97 218.388 185.952H218.172ZM214.248 200.01H210.72C210.72 199.434 210.81 198.03 210.828 197.472H214.266C214.32 198.3 214.392 199.092 214.464 200.01H214.248ZM214.014 185.988C214.014 187.086 213.924 187.914 213.906 188.508H210.45C210.45 187.77 210.324 186.816 210.252 185.988H214.014ZM210.018 200.01H206.418C206.418 199.326 206.418 198.12 206.526 197.472H209.964C210.306 200.262 210.198 199.596 210.234 200.01H210.018ZM210 186.024V188.544H206.562C206.4 186.06 206.562 186.438 206.472 185.97C207.84 186.024 208.02 186.042 210 186.024ZM206.112 199.992H202.512C202.512 199.308 202.602 198.012 202.62 197.364H206.058C206.148 200.172 206.04 199.632 206.076 199.992H206.112ZM205.95 186.06C205.95 186.654 205.95 187.428 205.86 188.598L202.404 188.706C202.35 187.825 202.35 186.941 202.404 186.06H205.95ZM201.972 199.992H198.21V197.238L201.81 197.346C201.846 197.958 201.9 199.56 201.936 199.992H201.972ZM198.228 196.716V193.242L201.702 193.35C201.702 194.16 201.702 195.834 201.81 196.734C200.172 196.788 198.192 196.716 198.192 196.716H198.228ZM201.828 186.078C201.828 187.176 201.828 188.148 201.72 188.724H198.246V186.096L201.828 186.078ZM356.718 201.594C358.085 200.229 359.167 198.607 359.903 196.821C360.639 195.035 361.014 193.121 361.005 191.189C360.997 189.258 360.606 187.347 359.854 185.567C359.103 183.788 358.006 182.175 356.628 180.822C354.564 178.771 351.937 177.378 349.081 176.82C346.225 176.262 343.268 176.564 340.583 177.688C337.899 178.811 335.608 180.706 334.001 183.132C332.394 185.558 331.543 188.407 331.556 191.317C331.569 194.227 332.444 197.068 334.072 199.48C335.7 201.892 338.007 203.767 340.701 204.867C343.395 205.968 346.355 206.244 349.206 205.661C352.057 205.079 354.672 203.663 356.718 201.594ZM334.704 190.956C334.153 190.66 333.51 190.583 332.904 190.74C332.989 187.262 334.402 183.949 336.852 181.479C339.301 179.009 342.603 177.57 346.08 177.456C345.896 178 345.817 178.574 345.846 179.148C345.846 181.416 346.566 181.452 346.566 181.038C346.953 179.869 346.953 178.607 346.566 177.438C350.049 177.552 353.356 178.997 355.807 181.474C358.257 183.952 359.666 187.274 359.742 190.758C358.948 190.53 358.099 190.594 357.348 190.938C357.303 190.951 357.264 190.979 357.237 191.016C357.209 191.053 357.194 191.098 357.194 191.145C357.194 191.192 357.209 191.237 357.237 191.274C357.264 191.311 357.303 191.339 357.348 191.352C358.102 191.684 358.947 191.748 359.742 191.532C359.638 194.968 358.225 198.234 355.793 200.663C353.36 203.092 350.092 204.501 346.656 204.6C346.881 203.614 346.825 202.585 346.494 201.63C346.481 201.585 346.453 201.546 346.416 201.519C346.379 201.491 346.333 201.476 346.287 201.476C346.24 201.476 346.195 201.491 346.158 201.519C346.121 201.546 346.093 201.585 346.08 201.63C345.743 202.584 345.681 203.613 345.9 204.6C342.482 204.497 339.231 203.1 336.805 200.69C334.378 198.281 332.958 195.039 332.832 191.622C333.131 191.707 333.445 191.731 333.754 191.694C334.062 191.657 334.361 191.559 334.632 191.406C334.66 191.406 334.687 191.4 334.712 191.389C334.737 191.378 334.76 191.362 334.779 191.342C334.797 191.321 334.812 191.297 334.82 191.271C334.829 191.245 334.832 191.217 334.83 191.19C334.842 191.142 334.835 191.092 334.812 191.049C334.789 191.005 334.75 190.972 334.704 190.956Z" fill="#D3EBF3"/>
<path d="M353.532 181.686C350.889 185.004 348.483 188.505 346.332 192.162C343.38 187.788 343.11 187.518 342.822 187.716C342.756 187.76 342.71 187.828 342.694 187.905C342.677 187.982 342.691 188.063 342.732 188.13C347.394 195.888 344.658 197.022 353.892 182.118C353.909 182.085 353.918 182.048 353.918 182.01C353.918 181.972 353.909 181.935 353.892 181.902C353.886 181.862 353.872 181.824 353.85 181.79C353.827 181.757 353.798 181.729 353.764 181.708C353.729 181.687 353.69 181.675 353.65 181.671C353.61 181.667 353.57 181.672 353.532 181.686ZM273.288 414.552C273.468 415.398 279.804 414.03 279.624 413.202C279.444 412.374 273.09 413.724 273.288 414.552ZM276.384 254.406C275.484 254.28 275.592 255.558 275.592 256.566C275.582 256.756 275.645 256.943 275.769 257.087C275.894 257.231 276.069 257.322 276.258 257.34C277.158 257.34 276.924 256.152 276.996 255.234C277.017 255.044 276.966 254.853 276.853 254.7C276.739 254.546 276.572 254.441 276.384 254.406ZM263.19 256.566C263.185 256.758 263.252 256.944 263.379 257.088C263.506 257.232 263.683 257.322 263.874 257.34C264.756 257.34 264.54 256.188 264.612 255.234C264.633 255.042 264.579 254.848 264.462 254.694C264.345 254.54 264.173 254.437 263.982 254.406C263.082 254.28 263.19 255.558 263.19 256.566Z" fill="#D3EBF3"/>
<path d="M228.648 394.644C230.052 397.83 238.89 405.696 239.448 405.624C285.942 398.154 283.692 398.748 283.692 398.1C283.584 396.012 283.926 395.4 283.35 395.22C283.17 395.13 270.75 391.044 270.75 387.768C270.75 384.762 275.718 375.708 277.05 373.008C284.016 372.108 322.95 367.14 329.25 364.008C329.808 363.72 329.448 259.212 329.052 259.194L283.692 256.8C284.064 254.859 284.274 252.89 284.322 250.914C284.312 250.809 284.268 250.71 284.196 250.632C284.125 250.554 284.03 250.501 283.926 250.482C282.487 250.297 281.038 250.207 279.588 250.212C279.588 249.438 279.48 248.7 279.426 248.016C282 246.99 282 243.318 283.53 246C285.672 249.6 289.614 247.458 289.488 240.708C289.488 238.908 291.072 240.708 293.43 239.394C298.074 236.874 295.5 233.436 293.16 231.78C290.82 230.124 296.364 225.246 287.994 223.014C279.624 220.782 277.662 224.454 274.584 220.548C271.506 216.642 269.688 213.6 264.198 214.986C258.708 216.372 261.192 221.43 255.36 220.548C250.104 219.756 246.198 220.296 245.01 226.128C244.218 230.088 245.766 233.238 242.364 234.408C240.374 235.057 238.618 236.276 237.315 237.915C236.013 239.553 235.221 241.539 235.038 243.624C234.695 247.276 234.786 250.955 235.308 254.586C230.214 254.316 183.432 252.786 183.378 255.036C183.378 255.252 181.578 346.08 186.87 382.836L187.41 383.268C187.41 383.268 206.4 381.306 231.366 378.444C230.178 381.558 227.334 391.656 228.648 394.644ZM229.17 393.78C231.818 397.235 235.031 400.217 238.674 402.6V403.968C236.82 402.438 229.62 396.21 229.17 393.78ZM282.63 396.012V397.686C271.83 399.378 252.462 402.51 239.592 404.616V403.104C250.626 401.61 267.096 398.982 282.54 395.994L282.63 396.012ZM271.2 382.908C269.4 387.624 266.916 390.108 281.28 395.508C265.782 397.632 248.88 400.458 239.646 402.276C236.442 399.126 230.34 394.356 229.152 392.808C229.152 389.1 231.582 381.828 232.86 378.408C246.486 376.842 261.552 375.042 275.682 373.224C274.027 376.375 272.531 379.607 271.2 382.908ZM283.386 251.4C283.281 253.214 283.053 255.018 282.702 256.8H279.822C279.822 254.64 279.822 252.66 279.642 251.13C281.1 251.094 282.432 251.22 283.386 251.4ZM282.522 257.7C282.407 258.254 282.226 258.792 281.982 259.302C281.281 259.471 280.561 259.549 279.84 259.536V257.52L282.522 257.7ZM279.57 265.476L319.332 268.05C320.106 285.276 320.034 304.5 319.872 329.358C318.989 324.576 317.52 319.921 315.498 315.498C310.942 306.441 303.817 298.928 295.014 293.898C286.235 289.07 276.552 286.11 266.574 285.204L266.826 280.506C272.82 279.552 278.562 274.242 279.57 265.422V265.476ZM301.962 360.462C296.562 361.092 290.28 361.758 283.512 362.442C286.38 356.127 288.786 349.612 290.712 342.948C291.99 338.7 293.106 334.506 294.06 330.636C296.652 320.052 298.002 311.898 298.002 311.898C298.38 309.594 293.16 315.498 267.672 317.406C268.392 314.706 265.872 307.686 264.072 304.086C265.278 302.727 266.191 301.134 266.754 299.406C270.354 301.206 270.084 301.494 270.48 301.206C270.561 301.165 270.628 301.1 270.67 301.019C270.712 300.938 270.727 300.846 270.714 300.756C270.714 300.756 270.498 296.85 270.066 293.16C269.688 289.848 269.796 287.148 269.706 286.518C274.548 286.789 279.312 287.866 283.8 289.704C297.282 294.6 308.136 303.186 314.652 315.84C321.042 332.976 319.674 336.81 319.512 357.798C314.167 358.947 308.757 359.77 303.312 360.264C301.512 344.928 299.118 325.758 297.912 326.064C297.498 326.028 301.944 360.318 301.962 360.408V360.462ZM251.886 304.032L255 300.432C256.182 301.775 257.471 303.021 258.852 304.158C258.665 308.74 258.214 313.308 257.502 317.838H254.046C253.056 317.838 254.64 318.864 250.248 333.876C248.287 333.59 246.285 333.904 244.506 334.776C239.502 337.458 242.706 341.076 229.602 344.694C229.602 344.694 228.396 337.062 228.288 336.198C226.805 326.474 224.295 316.935 220.8 307.74C220.8 307.632 220.422 307.56 220.314 307.596C220.262 307.616 220.22 307.656 220.197 307.706C220.174 307.756 220.17 307.813 220.188 307.866C223.032 317.496 228 334.326 228.414 345C223.662 346.242 215.544 348.924 210.9 350.49C193.998 356.178 196.986 354.504 194.52 355.404C193.638 344.604 192.846 328.116 192.36 317.154C193.316 314.748 194.554 312.464 196.05 310.35C210.864 290.838 240.78 285.6 240.942 285.978C242.094 288.3 250.194 306.03 251.886 304.032ZM258.906 294.312C259.068 294.132 263.964 289.218 265.998 286.482C266.124 286.302 266.88 286.482 268.68 286.482C268.86 288.84 269.274 294.006 269.76 299.928C266.754 298.128 259.374 294.528 259.194 294.528C258.51 294.222 258.672 294.798 251.742 302.754C248.898 300.018 245.082 292.08 241.788 285.816C240.906 283.8 257.736 295.482 258.906 294.312ZM257.772 338.43C258.049 339.982 257.808 341.582 257.088 342.984C254.622 347.664 252.534 342.228 244.29 350.184C242.976 349.788 239.43 349.158 237.756 347.412C236.711 346.314 236.076 344.891 235.956 343.38C244.272 339.384 240.906 334.38 250.014 334.758L249.402 336.792C248.988 337.692 256.962 334.65 257.772 338.43ZM243.372 351.03C241.636 352.69 240.007 354.457 238.494 356.322C232.788 356.07 230.628 351.138 230.214 345.522C231.981 344.997 233.712 344.36 235.398 343.614C235.038 347.664 238.926 350.526 243.408 351.048L243.372 351.03ZM229.764 345.63C229.577 347.295 229.734 348.98 230.227 350.581C230.719 352.182 231.536 353.664 232.626 354.936C234.426 356.736 236.226 356.736 237.756 357.24C232.662 363.468 231.33 364.782 229.584 367.284C211.944 368.778 199.344 369.786 196.788 369.984C195.712 365.589 194.978 361.118 194.592 356.61C219.756 348.726 216.012 349.644 229.8 345.63H229.764ZM245.712 350.184C243.12 355.8 240.834 361.812 239.07 366.474L230.916 367.176C235.391 361.119 240.351 355.436 245.748 350.184H245.712ZM246.648 349.356C252.606 344.226 255.468 348.276 257.916 343.434C259.356 340.554 259.14 336.036 255.648 335.64C254.007 335.409 252.335 335.544 250.752 336.036C252.388 330.422 253.698 324.719 254.676 318.954C264.054 319.224 286.14 317.154 296.562 312.906C296.13 315.318 295.086 321.906 293.07 330.348C292.17 334.218 290.496 339.114 289.29 343.362C287.222 349.932 284.683 356.345 281.694 362.55C281.316 362.55 266.178 364.116 240.096 366.384C240.996 364.8 245.388 353.37 246.684 349.356H246.648ZM278.832 259.464C278.004 259.464 274.764 259.158 274.404 258.474C273.683 256.13 273.212 253.717 273 251.274C274.885 251.019 276.786 250.91 278.688 250.95C278.796 253.74 278.85 256.638 278.832 259.464ZM250.626 247.008C251.002 245.734 251.763 244.608 252.803 243.783C253.844 242.959 255.114 242.475 256.44 242.4C259.662 242.4 257.376 240.6 261.678 239.916C268.482 238.926 271.884 249.114 278.562 248.232C278.562 248.862 278.562 249.528 278.67 250.212C276.595 250.235 274.524 250.422 272.478 250.77C272.427 250.779 272.381 250.805 272.348 250.845C272.315 250.884 272.297 250.934 272.298 250.986C272.298 250.986 272.298 251.49 272.442 252.264C272.104 252.083 271.727 251.988 271.344 251.988C270.961 251.988 270.584 252.083 270.246 252.264C270.39 251.076 270.48 250.824 270.246 250.788C266.119 250.155 261.932 250.016 257.772 250.374C257.66 250.39 257.556 250.443 257.478 250.524C257.4 250.606 257.351 250.711 257.34 250.824C257.316 251.262 257.316 251.7 257.34 252.138C254.789 252.391 252.266 252.866 249.798 253.56C249.789 251.349 250.067 249.147 250.626 247.008ZM269.652 251.4C269.328 253.2 268.662 258.222 268.05 258.6C265.348 259.408 262.497 259.587 259.716 259.122C258.88 256.578 258.396 253.931 258.276 251.256C262.055 250.746 265.888 250.795 269.652 251.4ZM244.794 256.08C245.766 257.736 244.92 260.094 247.818 258.924C249.132 258.402 249.618 256.584 249.744 254.442C252.35 254.04 254.912 253.389 257.394 252.498C257.502 253.74 258.132 259.14 259.194 259.896C260.256 260.652 265.728 260.436 267.87 259.662C268.842 259.302 269.166 259.194 269.67 256.458C269.886 255.306 270.066 253.974 270.21 252.858H270.588C272.082 262.308 273.756 262.128 270.984 263.118C270.804 263.118 270.606 263.874 270.984 263.766C272.784 263.496 273.468 262.308 273.36 261.606C272.883 258.623 272.118 255.693 271.074 252.858C271.617 252.837 272.152 252.988 272.604 253.29C273.342 259.068 273.126 260.022 278.85 260.31C278.634 279.228 266.502 279.408 266.25 279.588C265.764 279.588 266.052 280.038 265.44 286.014C265.44 286.446 264.054 287.616 258.366 293.214C253.203 290.727 248.169 287.981 243.282 284.988C243.282 284.988 246.072 274.728 246.252 273.882C249.006 272.982 247.602 268.482 246.828 265.566C245.784 261.714 240.978 264.9 240.654 258.996C240.33 253.092 243.804 254.46 244.794 256.098V256.08ZM245.118 273.936C245.136 273.975 245.164 274.008 245.198 274.034C245.233 274.059 245.273 274.075 245.316 274.08C245.154 274.62 243.516 280.272 242.634 284.664C235.458 286.076 228.399 288.031 221.52 290.514C206.112 296.688 196.32 306.714 192.486 314.868C190.2 261.462 191.676 295.572 190.848 265.134C213.852 264.774 239.16 265.134 239.448 265.134C241.068 267.6 242.004 267.312 245.118 273.954V273.936ZM187.788 382.296C184.188 356.628 184.008 284.322 184.422 255.54C195.024 253.902 224.796 255.198 235.488 255.684C235.954 258.758 237.085 261.694 238.8 264.288C225.12 264.09 208.2 264.036 190.2 264.288L189.84 264.648C189.84 264.828 190.758 306.804 192.522 338.934C193.404 355.026 194.664 371.208 195.978 371.118C231.222 367.95 320.52 361.164 320.556 358.23C320.556 335.946 321.132 267.276 320.088 267.222L279.678 264.522C279.822 262.956 279.822 261.822 279.84 260.418C282.684 260.418 282.954 260.274 283.44 257.736L328.26 260.292C328.26 265.692 328.476 295.554 328.422 322.014C328.422 342.516 328.116 360.678 328.116 363.27C315.318 368.814 201.846 380.82 187.788 382.296Z" fill="#D3EBF3"/>
<path d="M263.424 270.876C263.55 270.48 260.832 270.39 260.706 266.25C262.884 268.86 266.826 267.87 267.186 267.87C267.238 267.87 267.289 267.849 267.326 267.812C267.363 267.775 267.384 267.725 267.384 267.672C267.384 267.619 267.363 267.569 267.326 267.532C267.289 267.495 267.238 267.474 267.186 267.474C265.62 267.56 264.059 267.244 262.65 266.556C261.798 266.073 261.156 265.29 260.85 264.36C260.821 264.254 260.757 264.16 260.67 264.093C260.582 264.026 260.474 263.99 260.364 263.99C260.254 263.99 260.146 264.026 260.058 264.093C259.971 264.16 259.907 264.254 259.878 264.36C259.757 265.166 259.757 265.985 259.878 266.79C260.166 270.354 263.262 271.434 263.424 270.876ZM258.726 369.984C258.978 373.314 265.44 372.792 265.188 369.48C264.936 366.168 258.456 366.6 258.726 369.984ZM417.756 267.924C418.872 267.924 418.584 266.484 418.674 265.314C418.695 265.202 418.693 265.086 418.668 264.975C418.643 264.863 418.596 264.758 418.529 264.665C418.462 264.572 418.377 264.494 418.279 264.435C418.181 264.376 418.073 264.337 417.959 264.321C417.846 264.306 417.731 264.313 417.621 264.343C417.51 264.373 417.407 264.425 417.318 264.496C417.228 264.567 417.153 264.655 417.099 264.755C417.044 264.856 417.011 264.966 417 265.08C417 266.322 416.64 267.87 417.756 267.924Z" fill="#D3EBF3"/>
<path d="M524.118 495.786C524.118 495.786 515.118 491.376 498.918 483.942C502.086 474.564 498.792 452.442 497.244 443.388C498.27 436.818 496.038 418.188 495.57 414.462C503.634 392.16 507.576 363.162 498.252 341.832L498.414 342.084C498.414 342.084 492.474 322.842 458.184 310.962C457.554 309.774 455.916 306.516 456.042 306.75C464.268 306.372 471.594 303.978 473.358 301.206C476.148 296.868 467.13 293.484 468.804 279.606C470.478 265.728 470.604 240.636 434.856 242.868C434.856 242.868 420.222 238.782 415.812 247.422C415.326 248.394 417.522 250.5 421.608 252.822C420.294 254.298 418.962 255.954 417.774 257.52C414.786 258.096 411.906 261.12 411.6 265.836C404.4 274.206 403.608 271.668 409.152 274.692C405.93 292.062 415.074 300.612 427.008 301.08L425.676 312.762C422.184 312.888 415.812 315.822 412.662 317.442C403.374 322.32 398.1 338.862 396.462 349.158C390.36 357.996 385.194 366.51 382.998 374.88C366.996 375.168 288.228 381.27 299.388 394.374C302.034 397.488 305.994 398.334 338.322 413.022C336.306 414.03 333.804 415.326 332.922 417.36L331.806 416.712C318.216 420.114 301.098 424.326 296.22 425.496C296.142 425.521 296.076 425.572 296.033 425.642C295.99 425.711 295.974 425.793 295.986 425.874C295.986 426.054 353.388 456.006 363.612 458.706C369.426 458.436 399.612 445.638 399.702 445.44C399.792 445.242 399.252 445.026 398.01 444.468C401.296 444.099 404.615 444.135 407.892 444.576C468.48 472.026 516.054 493.338 524.604 497.172C524.628 497.184 524.653 497.192 524.68 497.194C524.706 497.196 524.733 497.193 524.758 497.184C524.783 497.176 524.807 497.162 524.826 497.145C524.846 497.127 524.863 497.106 524.874 497.082C524.689 496.614 524.434 496.177 524.118 495.786ZM457.716 311.97C459.876 313.068 464.718 314.904 463.926 317.604C463.134 320.304 456.906 317.46 455.232 316.686C456.293 315.248 457.131 313.658 457.716 311.97ZM445.8 324.354C447.873 323.507 449.794 322.327 451.488 320.862C452.442 322.14 456.888 328.17 453.378 330.114C450.876 331.554 446.898 325.974 445.8 324.354ZM445.278 333.354C440.832 334.398 439.284 327.72 438.942 325.884C441.103 325.766 443.231 325.298 445.242 324.498C446.16 326.712 448.662 332.634 445.278 333.426V333.354ZM451.776 320.538C452.998 319.501 454.06 318.287 454.926 316.938C457.032 318.504 462.972 320.664 460.488 323.76C457.698 327.414 452.838 321.798 451.776 320.61V320.538ZM422.526 253.344C425.64 255.047 428.892 256.486 432.246 257.646C432.11 261.573 432.559 265.498 433.578 269.292C430.284 268.05 428.97 267.492 426.378 266.592C426.738 261.804 424.47 257.25 419.322 257.394C420.366 256.044 421.428 254.604 422.526 253.344ZM417 258.6C414.894 261.39 413.832 263.118 412.644 264.612C412.77 263.118 414.3 259.5 417 258.6ZM418.512 258.6H419.016C427.62 258.798 427.638 274.8 419.016 274.8C415.83 274.8 412.482 271.56 412.482 266.304C414.642 263.46 415.038 263.19 418.422 258.6H418.512ZM428.268 300.45C428.278 300.387 428.272 300.323 428.252 300.262C428.232 300.202 428.197 300.147 428.151 300.103C428.105 300.059 428.049 300.026 427.988 300.008C427.927 299.991 427.863 299.988 427.8 300C427.62 299.856 405.66 300.252 410.682 274.476L410.412 273.918L407.46 272.244C408.972 270.819 410.357 269.265 411.6 267.6C412.338 278.526 425.172 278.616 426.36 267.762C430.194 269.562 431.58 269.94 434.154 270.948C437.754 279.84 445.71 270.534 448.86 277.734C450.93 282.414 440.4 288.03 438.06 284.448C438.06 284.448 431.526 301.242 442.11 305.166C446.217 306.511 450.54 307.072 454.854 306.822L457.086 311.574C456.386 313.308 455.46 314.942 454.332 316.434C448.932 323.76 442.074 325.218 434.1 325.002C433.019 324.892 431.97 324.568 431.015 324.049C430.06 323.53 429.218 322.826 428.538 321.978C427.097 319.918 426.347 317.454 426.396 314.94C426.396 314.94 428.286 299.604 428.178 300.396L428.268 300.45ZM432.75 325.776C434.649 326.123 436.587 326.214 438.51 326.046C438.51 327.846 438.33 334.092 434.46 333.48C431.004 332.886 432.3 327.324 432.66 325.722L432.75 325.776ZM427.08 331.176C423.876 329.97 427.08 324.192 427.854 322.95C429.001 324.316 430.562 325.27 432.3 325.668C431.706 327.126 430.086 332.274 426.99 331.122L427.08 331.176ZM425.892 319.224C426.061 320.497 426.643 321.679 427.548 322.59C426.63 323.724 422.526 329.088 420.654 325.848C418.8 322.878 422.958 320.88 425.802 319.17L425.892 319.224ZM425.406 315.3C425.398 316.253 425.477 317.205 425.64 318.144C417.288 321.744 416.082 316.686 425.64 313.266C425.487 313.918 425.379 314.579 425.316 315.246L425.406 315.3ZM420.006 314.958C416.676 317.712 417.666 319.728 419.574 320.358C415.974 324.516 407.118 334.758 398.262 347.358C403.878 322.248 410.988 318.63 419.898 314.904L420.006 314.958ZM388.506 435.954L389.118 436.224C387.822 436.746 388.722 436.386 384.42 438.24C381.288 436.872 377.814 435.288 374.484 433.884C369.876 431.94 357.42 426.954 348.69 423.552L343.578 421.572C347.016 418.89 345.9 418.098 349.446 417.972C393.6 438.078 389.532 436.386 388.398 435.9L388.506 435.954ZM378.804 442.92L376.032 443.856L372.558 442.182L376.878 440.58L378.588 441.3C377.76 441.948 377.976 442.56 378.696 442.866L378.804 442.92ZM381.972 444.09C382.08 444.432 382.674 444.702 383.016 444.846L380.136 445.818L376.536 444.126L379.074 443.136C379.29 444 381 444 381.864 444L381.972 444.09ZM380.028 442.866C380.028 442.866 379.902 442.83 379.92 442.812L380.028 442.866ZM390 445.98C389.759 445.773 389.486 445.609 389.19 445.494C389.964 445.494 390.792 445.404 391.656 445.314L390 445.98ZM389.352 446.232L384.636 448.032C384.348 447.852 383.142 447.222 380.586 445.998L383.322 444.9C384.77 445.327 386.277 445.521 387.786 445.476C388.291 445.773 388.821 446.026 389.37 446.232H389.352ZM340.32 420.852L339.816 421.302C339.501 421.138 339.177 420.994 338.844 420.87C338.925 420.697 339.015 420.529 339.114 420.366L340.32 420.852ZM339.348 420.006C339.466 419.797 339.625 419.613 339.816 419.466C341.004 419.376 341.256 419.826 340.572 420.564C340.392 420.492 339.762 420.15 339.348 420.006ZM343.29 432.768L347.592 434.928L343.344 436.242L338.952 434.046L343.29 432.768ZM338.124 433.632L334.524 431.832L338.97 430.608L342.57 432.408L340.554 433.002L338.124 433.632ZM348.402 435.342L352.398 437.34L350.922 437.808L348.222 438.69L344.154 436.638L348.402 435.342ZM353.19 437.736L356.502 439.392L352.344 440.76L349.032 439.086L353.19 437.736ZM357.312 439.788L361.398 441.822L357.24 443.226L353.136 441.156L357.312 439.788ZM362.19 442.218L365.61 443.91L361.488 445.368L358.014 443.568L362.19 442.218ZM358.14 439.5L362.406 438.096L366.636 440.058C365.466 440.454 365.088 440.562 362.208 441.552L358.14 439.5ZM357.348 439.104L354.054 437.466L358.158 436.098L361.614 437.718L357.348 439.104ZM353.244 437.052L350.94 435.9L349.284 435.072L353.28 433.83L355.584 434.892L357.384 435.738L353.244 437.052ZM348.456 434.658L344.154 432.516L348.042 431.364L352.488 433.452L348.456 434.658ZM343.326 432.102L339.726 430.302L343.542 429.222L347.142 431.022L343.326 432.102ZM338.952 429.942L335.19 428.142L338.916 427.116L342.786 428.916L338.952 429.942ZM338.106 430.176L333.66 431.4L329.844 429.6L334.398 428.376L338.106 430.176ZM328.98 429.096L325.38 427.296L330.078 426.072L333.498 427.872L328.98 429.096ZM328.224 429.294L324.102 430.41L320.502 428.61L324.732 427.512L328.224 429.294ZM329.052 429.726L332.832 431.634L328.764 432.786L324.894 430.824L329.052 429.726ZM333.66 432.066L337.26 433.866L333.246 435.054L329.538 433.254L333.66 432.066ZM338.088 434.298L342.462 436.512L341.796 436.71L338.448 437.754L334.002 435.468L338.088 434.298ZM341.976 437.304L343.272 436.908L347.376 438.96L343.38 440.292L339.204 438.132L341.976 437.304ZM348.168 439.356C349.284 439.932 350.4 440.49 351.516 441.03L347.448 442.398L344.1 440.598L348.168 439.356ZM352.29 441.426L356.43 443.496L352.308 444.918L348.168 442.776L352.29 441.426ZM357.222 443.892L360.822 445.692L356.664 447.204L353.064 445.404L357.222 443.892ZM361.524 446.016L364.89 447.672L360.588 449.238L357.276 447.438L361.524 446.016ZM362.244 445.764L366.42 444.288L369.75 445.926L365.52 447.456L362.244 445.764ZM366.348 443.64L363 441.948L365.592 441.066L367.392 440.418L370.866 442.038L366.348 443.64ZM363.27 437.79L367.176 436.44L371.748 438.402C368.328 439.5 369.192 439.212 367.482 439.788L363.27 437.79ZM362.478 437.43L359.022 435.81L362.784 434.532L366.528 436.17L362.478 437.43ZM358.248 435.45L355.854 434.334L354.18 433.542H354.27L357.87 432.372L362.172 434.262L358.248 435.45ZM354.108 432.966L353.388 433.182L348.924 431.094L352.524 429.996L357.222 432.066L354.108 432.966ZM348.132 430.734L344.532 429.024L348.132 427.98L351.984 429.78L348.132 430.734ZM343.668 428.664L339.726 426.864L343.326 425.856L347.448 427.656L343.668 428.664ZM338.916 426.468L335.172 424.758L338.772 423.75L342.66 425.55C342.246 425.622 339.24 426.36 338.916 426.468ZM338.106 426.666L334.344 427.656L330.744 425.946L334.344 424.938L338.106 426.666ZM329.952 425.514L326.604 423.876L330.204 422.904L333.66 424.56L329.952 425.514ZM329.304 425.694L324.588 426.936L321.168 425.262L326.064 424.02L329.304 425.694ZM323.904 427.098L319.728 428.214L316.236 426.414L320.592 425.334L323.904 427.098ZM319.08 428.394L314.634 429.636L310.8 427.8C312.6 427.368 313.392 427.224 315.678 426.666L319.08 428.394ZM319.854 428.79L323.328 430.59L319.08 431.796C317.73 431.112 316.434 430.482 315.246 429.906L319.854 428.79ZM324.084 431.022L327.9 433.02L323.85 434.208L319.8 432.138L324.084 431.022ZM328.656 433.416L332.4 435.324L328.512 436.53L324.48 434.514L328.656 433.416ZM333.102 435.72L337.566 438.024L333.84 439.23L329.106 436.8L333.102 435.72ZM338.286 438.402L342.498 440.562L338.898 441.786L334.398 439.518L338.286 438.402ZM343.2 440.94L346.584 442.74L342.984 443.964L339.384 442.164C342.192 441.264 342.84 441.048 343.2 440.94ZM347.286 443.028L351.462 445.188L348.006 446.412L343.614 444.18C347.43 443.028 347.088 443.1 347.34 443.028H347.286ZM352.164 445.548L355.764 447.348L352.362 448.608L348.6 446.7L352.164 445.548ZM356.502 447.744L359.922 449.544L356.484 450.84L352.884 449.04L356.502 447.744ZM360.642 449.832L363.63 451.344L364.116 451.578L363.846 451.686L360.66 452.928L357.06 451.128L360.642 449.832ZM363.828 450.984L361.236 449.616C362.856 449.04 361.902 449.4 365.628 448.068L368.742 449.58L369.048 449.724L367.248 450.426L364.674 451.398L363.828 450.984ZM368.922 449.184L366.24 447.798L370.47 446.268L373.854 447.906L369.534 449.508L368.922 449.184ZM371.082 446.052C372.45 445.548 373.908 445.008 375.816 444.252L379.416 445.89L374.322 447.69L371.082 446.052ZM370.326 445.674L367.068 444L371.658 442.362L375.258 443.982L370.326 445.674ZM371.622 441.732L368.202 440.112L372.342 438.636L376.086 440.22L371.622 441.732ZM372.99 438.42L376.896 437.016L378.588 437.682L380.568 438.456C379.146 438.924 377.562 439.734 376.572 440.058L372.99 438.42ZM372.396 438.15L367.932 436.116C368.112 436.116 369.732 435.486 371.532 434.856L376.284 436.764C375.168 437.142 372.63 438.114 372.45 438.186L372.396 438.15ZM367.356 435.864L363.612 434.19L366.96 433.02L370.794 434.586C370.2 434.784 367.68 435.81 367.41 435.9L367.356 435.864ZM363 433.974L358.68 432.066L361.902 431.004L366.24 432.804C365.196 433.2 363.288 433.902 363 433.974ZM358.086 431.796L353.334 429.708L356.394 428.736L361.164 430.698C361.038 430.752 359.4 431.4 358.158 431.796H358.086ZM352.686 429.456L348.762 427.656L351.75 426.756C353.406 427.458 354.27 427.818 355.674 428.376C355.206 428.61 353.73 429.204 352.794 429.456H352.686ZM348.15 427.458L343.848 425.658L346.818 424.794L351.21 426.594C350.245 426.944 349.259 427.232 348.258 427.458H348.15ZM343.236 425.352C342.678 425.136 341.814 424.758 339.096 423.552C339.096 423.552 342.03 422.742 342.102 422.67L346.152 424.47C344.46 424.902 343.614 425.298 343.344 425.352H343.236ZM339.384 421.554C338.358 422.418 338.484 422.958 339.006 423.228L338.484 423.354L337.638 422.994C337.995 422.419 338.308 421.817 338.574 421.194C338.867 421.344 339.175 421.465 339.492 421.554H339.384ZM338.016 423.48L334.254 424.38L330.654 422.76L332.058 422.364C332.335 422.529 332.654 422.61 332.976 422.598C333.264 423.552 334.542 423.624 335.298 423.03C335.387 423.231 335.528 423.405 335.707 423.533C335.886 423.66 336.096 423.738 336.316 423.756C336.535 423.774 336.755 423.733 336.953 423.637C337.151 423.541 337.319 423.394 337.44 423.21L338.016 423.48ZM331.59 420.798C331.508 421.234 331.578 421.685 331.788 422.076L329.988 422.472C328.188 421.68 327.414 421.068 326.928 420.852L330.15 419.988C330.569 420.413 331.11 420.696 331.698 420.798H331.59ZM330.78 419.844L331.896 419.538C331.818 419.756 331.752 419.979 331.698 420.204C331.445 420.049 331.173 419.928 330.888 419.844H330.78ZM329.484 422.598L325.668 423.48C324.21 422.778 323.436 422.184 322.896 421.932L326.298 421.032L329.484 422.598ZM325.146 423.606L320.178 424.83C318.72 424.11 317.964 423.552 317.514 423.336L322.23 422.112L325.146 423.606ZM319.746 424.956L315.408 426.054C314.112 425.406 313.338 424.866 312.762 424.578L316.938 423.498L319.746 424.956ZM314.904 426.18L310.188 427.44C308.766 426.738 307.992 426.18 307.47 425.928L312.168 424.722L314.904 426.18ZM309.702 427.566L306.642 428.412L303.654 426.9L306.858 426.09L309.702 427.566ZM310.296 427.872L314.022 429.816L310.98 430.68L307.38 428.772C308.244 428.556 309.72 428.016 310.332 427.8L310.296 427.872ZM314.58 430.104L318.342 432.048L315.282 432.93L311.682 431.13C312.366 430.896 313.158 430.446 314.616 430.104H314.58ZM318.9 432.318C320.97 433.398 322.806 434.334 323.04 434.442L319.944 435.378L315.948 433.2C316.596 433.2 317.46 432.696 318.936 432.318H318.9ZM323.58 434.73L327.666 436.8L324.57 437.772C323.616 437.268 321.798 436.242 320.772 435.72C321.402 435.558 322.122 435.108 323.616 434.73H323.58ZM328.188 437.07L332.994 439.5L329.844 440.544L325.2 438.114C325.902 437.952 326.73 437.484 328.224 437.07H328.188ZM333.588 439.77L338.142 442.074L335.01 443.172L330.6 440.94C331.32 440.742 332.058 440.202 333.57 439.77H333.588ZM338.664 442.344L342.264 444.144L339.132 445.26L335.532 443.46C336.27 443.298 337.152 442.812 338.646 442.344H338.664ZM342.84 444.45L347.304 446.7L344.172 447.816L339.762 445.602C340.374 445.404 341.292 444.918 342.822 444.45H342.84ZM347.826 446.952L351.786 448.932L348.762 450.084L344.712 448.086C345.342 447.888 346.314 447.438 347.808 446.952H347.826ZM352.2 449.184L355.8 450.984L352.866 452.118L349.266 450.318C349.986 450.192 350.796 449.688 352.2 449.184ZM356.412 451.272L360.156 453.072L357.456 454.152L353.568 452.352C354.576 452.066 355.553 451.68 356.484 451.2L356.412 451.272ZM360.696 453.378L364.782 455.376C363.774 455.682 362.874 455.934 362.136 456.096C361.002 455.7 359.94 455.286 358.23 454.548C359.104 454.223 359.953 453.831 360.768 453.378H360.696ZM361.182 453.216L364.026 452.208L364.8 451.938L368.976 454.026C367.59 454.494 366.546 454.854 365.376 455.196C364.926 454.926 363.27 454.26 361.2 453.216H361.182ZM365.286 451.758L367.356 451.002L369.804 450.102L374.07 452.19C372.432 452.802 371.064 453.288 369.552 453.828C369.102 453.54 367.428 452.874 365.358 451.758H365.286ZM370.29 449.958L374.61 448.338C376.536 449.274 378.03 450.138 378.768 450.426C377.922 450.768 377.886 450.786 374.628 451.992C374.16 451.704 372.486 451.038 370.362 449.94L370.29 449.958ZM375.078 448.158C377.094 447.402 377.904 447.078 380.046 446.232C382.26 447.24 383.646 448.032 384.078 448.284C380.082 449.85 380.19 449.814 379.254 450.21C378.714 449.886 377.112 449.148 375.15 448.158H375.078ZM377.13 440.364L381.288 438.798L382.116 439.122C380.899 439.663 379.731 440.308 378.624 441.048L377.13 440.364ZM378.75 437.268C369.858 433.362 357.726 428.268 342.174 422.4C342.416 422.25 342.651 422.088 342.876 421.914C356.088 427.494 368.796 432.714 373.674 434.622L383.502 438.492L382.836 438.78C381.72 438.258 380.136 437.844 378.822 437.268H378.75ZM381.9 431.67L352.02 418.134C354.612 418.404 367.932 421.32 381.648 418.908C381.684 424.92 381.702 429.6 381.972 431.67H381.9ZM301.584 394.068C298.65 390.63 303.186 388.668 307.506 387.084C325.506 380.586 360.336 376.842 382.62 376.284C381.987 378.668 381.678 381.126 381.702 383.592C381.702 387.192 381.828 390.99 381.846 394.68C378.84 395.796 372.324 398.28 365.88 400.908L340.32 412.086C306.642 396.804 304.14 397.056 301.584 394.068ZM332.706 420.798C333.786 413.76 341.382 413.436 354.666 406.758C361.758 403.158 374.466 399.09 381.864 396.174C381.864 404.688 381.864 411.258 381.738 417.774C361.596 421.014 348.96 413.922 345.09 418.602C343.722 420.244 341.99 421.544 340.032 422.4C340.284 422.148 341.634 421.284 341.832 420.186C342.174 418.17 339.726 418.53 339.546 418.386C338.322 418.548 337.188 422.922 336.414 422.616C336.18 422.616 336.414 421.392 336.612 421.104C337.53 418.494 338.61 417.882 338.016 417.378C337.422 416.874 336.576 418.296 336.216 419.178C335.939 420.026 335.608 420.856 335.226 421.662C334.686 422.562 333.786 422.778 334.11 421.662C334.75 420.004 335.603 418.437 336.648 417C337.188 416.244 335.46 414.426 333.156 421.356C333.121 421.443 333.079 421.528 333.03 421.608C332.724 421.608 332.706 421.608 332.688 421.392C332.667 421.194 332.673 420.994 332.706 420.798ZM398.532 445.404C393.726 447.384 368.724 457.572 363.486 457.824C352.902 454.962 305.454 429.438 297.93 425.838C301.332 424.992 328.296 418.314 331.554 417.324L332.652 417.774C332.436 418.302 332.256 418.77 332.112 419.178C303.312 426.846 300.432 426.144 302.916 427.314C307.074 429.24 350.688 452.982 362.082 456.78H362.262C368.85 455.304 386.706 447.78 392.862 445.17C395.184 444.882 396.822 444.576 397.02 444.54C397.542 444.81 398.118 445.17 398.532 445.404ZM402.006 442.398C396.876 442.308 386.76 445.8 382.818 443.838C384.641 443.276 386.507 442.866 388.398 442.614C388.668 442.614 388.614 442.182 388.398 442.218C387.39 442.398 383.448 442.452 382.008 443.514C381.328 443.405 380.667 443.199 380.046 442.902C381.208 442.258 382.457 441.785 383.754 441.498L384.6 441.192C385.266 440.94 385.914 440.652 386.508 440.364C386.558 440.347 386.6 440.311 386.623 440.264C386.647 440.217 386.651 440.162 386.634 440.112C386.617 440.062 386.581 440.02 386.534 439.997C386.487 439.973 386.432 439.969 386.382 439.986L385.122 440.256C383.826 440.508 379.722 441.228 379.128 442.542L378.858 442.398C378.714 442.308 378.588 442.2 378.624 442.056C378.66 441.962 378.723 441.881 378.804 441.822C379.03 441.604 379.292 441.428 379.578 441.3C383.502 439.248 396.966 434.748 406.686 429.906C420.132 423.192 440.184 411.42 452.244 409.35C452.244 409.35 454.422 365.79 456.24 357.042C458.058 348.294 468.462 331.644 479.64 331.122C488.172 330.726 492.33 336.774 495.156 340.356C505.758 361.002 500.556 392.43 493.158 414.588C476.688 442.38 435.27 443.388 427.674 443.082C412.77 442.632 409.242 442.524 402.006 442.398ZM440.58 457.626C472.71 463.026 489.828 450.048 495.858 445.026C497.046 453.882 499.458 474.762 496.992 483.348C460.884 466.86 457.626 465.402 440.58 457.626Z" fill="#D3EBF3"/>
<path d="M218.555 544.856C224.827 544.856 229.883 549.848 229.883 556.12C229.883 562.392 224.827 567.384 218.555 567.384C212.283 567.384 207.227 562.392 207.227 556.12C207.227 549.848 212.283 544.856 218.555 544.856ZM218.555 563.32C222.523 563.32 225.467 560.088 225.467 556.12C225.467 552.152 222.523 548.92 218.555 548.92C214.587 548.92 211.643 552.152 211.643 556.12C211.643 560.088 214.587 563.32 218.555 563.32ZM242.218 551.352C246.282 551.352 248.97 554.232 248.97 558.712V567H244.778V558.968C244.778 556.472 243.53 555.16 241.322 555.16C240.17 555.16 238.89 555.832 237.802 557.112V567H233.61V551.736H237.802V552.888C239.05 551.896 240.49 551.352 242.218 551.352ZM261.342 551.352C265.566 551.352 268.958 554.936 268.958 559.352C268.958 563.8 265.566 567.384 261.342 567.384C259.646 567.384 258.142 566.904 256.958 566.136V567H252.766V544.28H256.958V552.6C258.142 551.832 259.646 551.352 261.342 551.352ZM260.702 563.576C263.102 563.576 264.766 561.656 264.766 559.352C264.766 557.08 263.102 555.16 260.702 555.16C259.326 555.16 257.95 555.544 256.958 556.952V561.784C257.95 563.192 259.326 563.576 260.702 563.576ZM279.658 551.352C284.426 551.352 287.754 554.648 287.754 559.384C287.754 564.088 284.426 567.384 279.658 567.384C274.858 567.384 271.53 564.088 271.53 559.384C271.53 554.648 274.858 551.352 279.658 551.352ZM279.658 563.576C281.962 563.576 283.562 561.848 283.562 559.384C283.562 556.888 281.962 555.16 279.658 555.16C277.322 555.16 275.722 556.888 275.722 559.384C275.722 561.848 277.322 563.576 279.658 563.576ZM302.311 551.736H306.503V567H302.311V566.136C301.127 566.904 299.623 567.384 297.927 567.384C293.703 567.384 290.311 563.8 290.311 559.384C290.311 554.936 293.703 551.352 297.927 551.352C299.623 551.352 301.127 551.832 302.311 552.6V551.736ZM298.567 563.576C299.943 563.576 301.319 563.192 302.311 561.784V556.952C301.319 555.544 299.943 555.16 298.567 555.16C296.167 555.16 294.503 557.08 294.503 559.384C294.503 561.656 296.167 563.576 298.567 563.576ZM314.739 553.496C316.115 552.184 317.875 551.48 320.147 551.48V555.448C317.779 555.576 316.051 556.28 314.739 557.752V567H310.547V551.736H314.739V553.496ZM333.749 544.28H337.941V567H333.749V566.136C332.565 566.904 331.061 567.384 329.365 567.384C325.141 567.384 321.749 563.8 321.749 559.352C321.749 554.936 325.141 551.352 329.365 551.352C331.061 551.352 332.565 551.832 333.749 552.6V544.28ZM330.005 563.576C331.381 563.576 332.757 563.192 333.749 561.784V556.952C332.757 555.544 331.381 555.16 330.005 555.16C327.605 555.16 325.941 557.08 325.941 559.352C325.941 561.656 327.605 563.576 330.005 563.576ZM370.873 567H365.369L363.609 565.336C361.849 566.744 359.769 567.48 357.401 567.48C352.505 567.48 349.241 564.728 349.241 560.632C349.241 558.136 350.617 556.056 352.921 554.872C351.929 553.528 351.481 552.376 351.481 551C351.481 547.32 354.521 544.76 358.425 544.76C362.361 544.76 364.825 547.384 365.273 551.224H361.049C360.825 549.496 359.833 548.504 358.393 548.504C356.953 548.504 355.833 549.528 355.833 551.064C355.833 552.728 357.177 554.008 359.961 556.632L363.417 559.928L366.105 555.64H370.489L366.457 562.072C366.361 562.232 366.265 562.392 366.169 562.52L370.873 567ZM357.401 563.768C358.553 563.768 359.737 563.384 360.825 562.712L356.249 558.392C355.961 558.104 355.673 557.848 355.385 557.592C354.073 558.296 353.305 559.352 353.305 560.6C353.305 562.296 355.129 563.768 357.401 563.768ZM404.552 545.24V567H400.2V554.84L394.536 563.8H391.912V563.768L386.184 554.712L386.248 567H381.896V545.24H384.968L393.224 558.424L401.48 545.24H404.552ZM420.061 551.736H424.253V567H420.061V566.136C418.877 566.904 417.373 567.384 415.677 567.384C411.453 567.384 408.061 563.8 408.061 559.384C408.061 554.936 411.453 551.352 415.677 551.352C417.373 551.352 418.877 551.832 420.061 552.6V551.736ZM416.317 563.576C417.693 563.576 419.069 563.192 420.061 561.784V556.952C419.069 555.544 417.693 555.16 416.317 555.16C413.917 555.16 412.253 557.08 412.253 559.384C412.253 561.656 413.917 563.576 416.317 563.576ZM436.905 551.352C440.969 551.352 443.657 554.232 443.657 558.712V567H439.465V558.968C439.465 556.472 438.217 555.16 436.009 555.16C434.857 555.16 433.577 555.832 432.489 557.112V567H428.297V551.736H432.489V552.888C433.737 551.896 435.177 551.352 436.905 551.352ZM458.718 551.736H462.91V567H458.718V566.136C457.534 566.904 456.03 567.384 454.334 567.384C450.11 567.384 446.718 563.8 446.718 559.384C446.718 554.936 450.11 551.352 454.334 551.352C456.03 551.352 457.534 551.832 458.718 552.6V551.736ZM454.974 563.576C456.35 563.576 457.726 563.192 458.718 561.784V556.952C457.726 555.544 456.35 555.16 454.974 555.16C452.574 555.16 450.91 557.08 450.91 559.384C450.91 561.656 452.574 563.576 454.974 563.576ZM478.218 551.736H482.41V567.096C482.41 571.864 479.146 574.744 474.602 574.744C470.218 574.744 466.954 572.024 466.634 568.184H470.89C471.082 569.816 472.426 570.936 474.602 570.936C476.65 570.936 478.218 569.592 478.218 567.096V565.144C477.034 565.912 475.53 566.36 473.834 566.36C469.61 566.36 466.218 562.936 466.218 559C466.218 554.424 469.61 551.352 473.834 551.352C475.53 551.352 477.034 551.8 478.218 552.568V551.736ZM474.474 562.744C475.85 562.744 477.226 562.264 478.218 560.824V556.888C477.226 555.448 475.85 554.968 474.474 554.968C472.074 554.968 470.41 556.568 470.41 559C470.41 560.792 472.074 562.744 474.474 562.744ZM493.433 551.352C498.681 551.352 501.849 555.32 501.049 560.6H489.849C490.169 562.36 491.321 563.704 493.721 563.704C494.841 563.704 495.609 563.512 496.153 562.84H500.793C499.769 565.72 497.049 567.384 493.689 567.384C488.793 567.384 485.561 563.928 485.561 559.384C485.561 554.84 488.761 551.352 493.433 551.352ZM493.465 554.904C491.417 554.904 490.329 556.152 489.945 557.752H496.889C496.665 555.8 495.417 554.904 493.465 554.904ZM152.595 582.856C156.275 582.856 161.043 584.296 161.555 589.864H157.235C156.947 587.848 155.667 586.6 152.915 586.6C150.515 586.6 148.947 587.528 148.947 589.32C148.947 590.888 150.099 591.56 152.179 591.976L154.739 592.488C158.995 593.352 161.427 594.984 161.427 598.568C161.427 602.696 158.035 605.384 152.915 605.384C147.539 605.384 143.795 602.504 143.475 597.832H147.795C148.147 600.104 150.163 601.512 153.171 601.512C155.571 601.512 156.947 600.648 156.947 599.112C156.947 598.152 156.403 597.16 154.067 596.744L150.547 596.072C146.227 595.24 144.339 593.064 144.339 589.704C144.339 585.544 147.635 582.856 152.595 582.856ZM175.804 600.904L176.38 604.712C174.972 605.256 173.82 605.384 172.7 605.384C168.604 605.384 166.3 602.824 166.3 598.92V593.256H163.036V589.736H166.3V584.2H170.492V589.736H176.092V593.256H170.492V598.92C170.492 600.712 171.612 601.512 173.18 601.512C174.14 601.512 175.036 601.224 175.804 600.904ZM190.273 589.736H194.465V605H190.273V603.784C189.025 604.776 187.585 605.384 185.857 605.384C181.793 605.384 179.105 602.408 179.105 597.928V589.736H183.297V597.672C183.297 600.168 184.545 601.576 186.753 601.576C187.905 601.576 189.185 600.872 190.273 599.56V589.736ZM209.749 582.28H213.941V605H209.749V604.136C208.565 604.904 207.061 605.384 205.365 605.384C201.141 605.384 197.749 601.8 197.749 597.352C197.749 592.936 201.141 589.352 205.365 589.352C207.061 589.352 208.565 589.832 209.749 590.6V582.28ZM206.005 601.576C207.381 601.576 208.757 601.192 209.749 599.784V594.952C208.757 593.544 207.381 593.16 206.005 593.16C203.605 593.16 201.941 595.08 201.941 597.352C201.941 599.656 203.605 601.576 206.005 601.576ZM224.965 589.352C230.213 589.352 233.381 593.32 232.581 598.6H221.381C221.701 600.36 222.853 601.704 225.253 601.704C226.373 601.704 227.141 601.512 227.685 600.84H232.325C231.301 603.72 228.581 605.384 225.22 605.384C220.325 605.384 217.093 601.928 217.093 597.384C217.093 592.84 220.293 589.352 224.965 589.352ZM224.997 592.904C222.949 592.904 221.861 594.152 221.477 595.752H228.421C228.197 593.8 226.949 592.904 224.997 592.904ZM244.312 589.352C248.376 589.352 251.064 592.232 251.064 596.712V605H246.872V596.968C246.872 594.472 245.624 593.16 243.416 593.16C242.264 593.16 240.984 593.832 239.896 595.112V605H235.704V589.736H239.896V590.888C241.144 589.896 242.584 589.352 244.312 589.352ZM265.648 600.904L266.224 604.712C264.816 605.256 263.664 605.384 262.544 605.384C258.448 605.384 256.144 602.824 256.144 598.92V593.256H252.88V589.736H256.144V584.2H260.336V589.736H265.936V593.256H260.336V598.92C260.336 600.712 261.456 601.512 263.024 601.512C263.984 601.512 264.88 601.224 265.648 600.904ZM271.832 599.72C272.088 601.448 273.336 601.992 275.128 601.992C276.728 601.992 277.848 601.576 277.848 600.712C277.848 600.104 277.336 599.592 276.28 599.4L272.984 598.824C270.744 598.44 268.472 597.224 268.472 594.344C268.472 591.208 271.128 589.32 275 589.32C277.752 589.32 281.4 590.088 281.752 594.472H277.88C277.784 593.096 276.472 592.648 275 592.648C273.4 592.648 272.632 593.192 272.632 593.928C272.632 594.504 273.048 595.176 274.52 595.432L277.272 595.88C279.64 596.296 281.848 597.384 281.848 600.328C281.848 603.72 278.904 605.384 275.032 605.384C271.672 605.384 268.28 604.136 267.96 599.688L271.832 599.72ZM302.03 583.24C308.686 583.24 313.678 587.88 313.678 594.024C313.678 600.296 308.686 605 302.03 605H293.678V583.24H302.03ZM302.03 600.968C306.03 600.968 309.262 597.896 309.262 594.024C309.262 590.28 306.03 587.272 302.03 587.272H298.03V600.968H302.03ZM328.03 589.736H332.222V605H328.03V604.136C326.846 604.904 325.342 605.384 323.646 605.384C319.422 605.384 316.03 601.8 316.03 597.384C316.03 592.936 319.422 589.352 323.646 589.352C325.342 589.352 326.846 589.832 328.03 590.6V589.736ZM324.286 601.576C325.662 601.576 327.038 601.192 328.03 599.784V594.952C327.038 593.544 325.662 593.16 324.286 593.16C321.886 593.16 320.222 595.08 320.222 597.384C320.222 599.656 321.886 601.576 324.286 601.576ZM347.21 600.904L347.786 604.712C346.378 605.256 345.226 605.384 344.106 605.384C340.01 605.384 337.706 602.824 337.706 598.92V593.256H334.442V589.736H337.706V584.2H341.898V589.736H347.498V593.256H341.898V598.92C341.898 600.712 343.018 601.512 344.586 601.512C345.546 601.512 346.442 601.224 347.21 600.904ZM361.374 589.736H365.566V605H361.374V604.136C360.19 604.904 358.686 605.384 356.99 605.384C352.766 605.384 349.374 601.8 349.374 597.384C349.374 592.936 352.766 589.352 356.99 589.352C358.686 589.352 360.19 589.832 361.374 590.6V589.736ZM357.63 601.576C359.006 601.576 360.382 601.192 361.374 599.784V594.952C360.382 593.544 359.006 593.16 357.63 593.16C355.23 593.16 353.566 595.08 353.566 597.384C353.566 599.656 355.23 601.576 357.63 601.576ZM380.482 586.76C379.042 586.76 377.922 585.704 377.922 584.296C377.922 582.856 379.042 581.8 380.482 581.8C381.89 581.8 383.042 582.856 383.042 584.296C383.042 585.704 381.89 586.76 380.482 586.76ZM378.402 589.736H382.594V605H378.402V589.736ZM395.687 589.352C399.751 589.352 402.439 592.232 402.439 596.712V605H398.247V596.968C398.247 594.472 396.999 593.16 394.791 593.16C393.639 593.16 392.359 593.832 391.271 595.112V605H387.079V589.736H391.271V590.888C392.519 589.896 393.959 589.352 395.687 589.352ZM421.939 589.352C426.707 589.352 430.035 592.648 430.035 597.384C430.035 602.088 426.707 605.384 421.939 605.384C417.139 605.384 413.811 602.088 413.811 597.384C413.811 592.648 417.139 589.352 421.939 589.352ZM421.939 601.576C424.243 601.576 425.843 599.848 425.843 597.384C425.843 594.888 424.243 593.16 421.939 593.16C419.603 593.16 418.003 594.888 418.003 597.384C418.003 599.848 419.603 601.576 421.939 601.576ZM441.624 589.352C445.688 589.352 448.376 592.232 448.376 596.712V605H444.184V596.968C444.184 594.472 442.936 593.16 440.728 593.16C439.576 593.16 438.296 593.832 437.208 595.112V605H433.016V589.736H437.208V590.888C438.456 589.896 439.896 589.352 441.624 589.352ZM459.308 589.352C464.556 589.352 467.724 593.32 466.924 598.6H455.724C456.044 600.36 457.196 601.704 459.596 601.704C460.716 601.704 461.484 601.512 462.028 600.84H466.668C465.644 603.72 462.924 605.384 459.564 605.384C454.668 605.384 451.436 601.928 451.436 597.384C451.436 592.84 454.636 589.352 459.308 589.352ZM459.34 592.904C457.292 592.904 456.204 594.152 455.82 595.752H462.764C462.54 593.8 461.292 592.904 459.34 592.904ZM487.248 589.416C491.472 589.416 494.864 592.936 494.864 597.384C494.864 601.8 491.472 605.32 487.248 605.32C485.552 605.32 484.048 604.872 482.864 604.104V612.456H478.672V589.736H482.864V590.632C484.048 589.864 485.552 589.416 487.248 589.416ZM486.608 601.704C489.008 601.704 490.672 599.656 490.672 597.384C490.672 595.08 489.008 593.032 486.608 593.032C485.232 593.032 483.856 593.512 482.864 594.92V599.816C483.856 601.224 485.232 601.704 486.608 601.704ZM498.016 582.28H502.208V605H498.016V582.28ZM517.343 589.736H521.535V605H517.343V604.136C516.159 604.904 514.655 605.384 512.959 605.384C508.735 605.384 505.343 601.8 505.343 597.384C505.343 592.936 508.735 589.352 512.959 589.352C514.655 589.352 516.159 589.832 517.343 590.6V589.736ZM513.599 601.576C514.975 601.576 516.351 601.192 517.343 599.784V594.952C516.351 593.544 514.975 593.16 513.599 593.16C511.199 593.16 509.535 595.08 509.535 597.384C509.535 599.656 511.199 601.576 513.599 601.576ZM532.658 601.576C534.386 601.576 535.666 600.584 535.986 599.112H540.274C539.794 602.792 536.594 605.384 532.658 605.384C528.082 605.384 524.53 601.928 524.53 597.384C524.53 592.84 528.082 589.352 532.658 589.352C536.594 589.352 539.794 591.976 540.274 595.656H535.986C535.666 594.184 534.386 593.16 532.658 593.16C530.258 593.16 528.722 595.048 528.722 597.384C528.722 599.72 530.258 601.576 532.658 601.576ZM550.715 589.352C555.963 589.352 559.131 593.32 558.331 598.6H547.131C547.451 600.36 548.603 601.704 551.003 601.704C552.123 601.704 552.891 601.512 553.435 600.84H558.075C557.051 603.72 554.331 605.384 550.97 605.384C546.075 605.384 542.843 601.928 542.843 597.384C542.843 592.84 546.043 589.352 550.715 589.352ZM550.747 592.904C548.699 592.904 547.611 594.152 547.227 595.752H554.171C553.947 593.8 552.699 592.904 550.747 592.904ZM562.613 605.224C561.237 605.224 560.085 604.168 560.085 602.76C560.085 601.384 561.237 600.328 562.613 600.328C564.021 600.328 565.173 601.384 565.173 602.76C565.173 604.168 564.021 605.224 562.613 605.224Z" fill="white"/>
<path d="M172.318 651.538H178.384V658H177.232L177.124 655.498C176.242 657.136 174.676 658.216 172.444 658.216C168.826 658.216 166.108 655.408 166.108 651.97C166.108 648.262 168.97 645.544 172.534 645.544C175.198 645.544 177.664 647.074 178.348 649.81H176.818C176.206 647.83 174.352 646.876 172.552 646.876C169.726 646.876 167.548 649 167.548 651.97C167.548 654.634 169.582 656.884 172.444 656.884C174.946 656.884 176.53 655.138 176.872 652.852H172.318V651.538ZM185.225 649.432C187.907 649.432 189.581 651.502 189.311 654.238H182.327C182.489 655.786 183.551 656.992 185.297 656.992C186.359 656.992 187.169 656.614 187.529 655.912H189.059C188.537 657.352 187.097 658.216 185.297 658.216C182.723 658.216 180.941 656.29 180.941 653.824C180.941 651.358 182.705 649.432 185.225 649.432ZM185.225 650.62C183.569 650.62 182.543 651.79 182.345 653.266H187.943C187.871 651.61 186.809 650.62 185.225 650.62ZM197.179 656.65L197.377 657.91C196.693 658.144 196.117 658.216 195.613 658.216C193.561 658.216 192.571 657.082 192.571 654.904V650.818H190.393V649.648H192.571V646.57H193.939V649.648H197.089V650.818H193.939V654.904C193.939 656.344 194.551 656.938 195.739 656.938C196.207 656.938 196.729 656.812 197.179 656.65ZM209.818 656.65L210.016 657.91C209.332 658.144 208.756 658.216 208.252 658.216C206.2 658.216 205.21 657.082 205.21 654.904V650.818H203.032V649.648H205.21V646.57H206.578V649.648H209.728V650.818H206.578V654.904C206.578 656.344 207.19 656.938 208.378 656.938C208.846 656.938 209.368 656.812 209.818 656.65ZM216.509 649.432C218.633 649.432 220.091 650.854 220.091 653.212V658H218.723V653.284C218.723 651.592 217.733 650.692 216.257 650.692C215.267 650.692 214.241 651.196 213.521 652.132V658H212.153V645.22H213.521V650.584C214.295 649.846 215.321 649.432 216.509 649.432ZM226.552 649.432C229.234 649.432 230.908 651.502 230.638 654.238H223.654C223.816 655.786 224.878 656.992 226.624 656.992C227.686 656.992 228.496 656.614 228.856 655.912H230.386C229.864 657.352 228.424 658.216 226.624 658.216C224.05 658.216 222.268 656.29 222.268 653.824C222.268 651.358 224.032 649.432 226.552 649.432ZM226.552 650.62C224.896 650.62 223.87 651.79 223.672 653.266H229.27C229.198 651.61 228.136 650.62 226.552 650.62ZM238.747 655.372C238.999 656.488 239.863 657.082 241.393 657.082C242.689 657.082 243.571 656.596 243.571 655.75C243.571 655.048 243.013 654.634 242.203 654.49L240.313 654.184C238.945 653.95 237.829 653.338 237.829 651.916C237.829 650.368 239.197 649.432 241.213 649.432C242.959 649.432 244.687 650.098 244.849 652.078H243.571C243.427 651.034 242.545 650.548 241.213 650.548C239.953 650.548 239.197 651.034 239.197 651.79C239.197 652.402 239.611 652.852 240.745 653.05L242.401 653.32C243.607 653.518 244.885 654.058 244.885 655.66C244.885 657.298 243.409 658.216 241.357 658.216C239.233 658.216 237.721 657.334 237.469 655.372H238.747ZM253.73 649.648H255.098V658H253.73V657.046C252.956 657.784 251.93 658.216 250.742 658.216C248.618 658.216 247.16 656.758 247.16 654.4V649.648H248.528V654.328C248.528 656.02 249.518 656.956 250.994 656.956C251.984 656.956 253.01 656.434 253.73 655.48V649.648ZM262.351 649.45C264.745 649.45 266.653 651.394 266.653 653.824C266.653 656.272 264.745 658.198 262.351 658.198C261.163 658.198 260.155 657.802 259.417 657.118V662.176H258.049V649.648H259.417V650.53C260.155 649.846 261.163 649.45 262.351 649.45ZM262.171 656.992C263.935 656.992 265.285 655.552 265.285 653.824C265.285 652.096 263.935 650.656 262.171 650.656C261.073 650.656 260.101 651.106 259.417 652.114V655.534C260.101 656.542 261.073 656.992 262.171 656.992ZM273.425 649.45C275.819 649.45 277.727 651.394 277.727 653.824C277.727 656.272 275.819 658.198 273.425 658.198C272.237 658.198 271.229 657.802 270.491 657.118V662.176H269.123V649.648H270.491V650.53C271.229 649.846 272.237 649.45 273.425 649.45ZM273.245 656.992C275.009 656.992 276.359 655.552 276.359 653.824C276.359 652.096 275.009 650.656 273.245 650.656C272.147 650.656 271.175 651.106 270.491 652.114V655.534C271.175 656.542 272.147 656.992 273.245 656.992ZM284.264 649.432C286.802 649.432 288.692 651.304 288.692 653.824C288.692 656.344 286.802 658.216 284.264 658.216C281.708 658.216 279.818 656.344 279.818 653.824C279.818 651.304 281.708 649.432 284.264 649.432ZM284.264 656.956C286.01 656.956 287.306 655.624 287.306 653.824C287.306 652.024 286.01 650.692 284.264 650.692C282.5 650.692 281.186 652.024 281.186 653.824C281.186 655.624 282.5 656.956 284.264 656.956ZM292.394 651.016C293.168 650.026 294.284 649.45 295.616 649.45V650.746C294.248 650.782 293.132 651.412 292.394 652.564V658H291.026V649.648H292.394V651.016ZM303.034 656.65L303.232 657.91C302.548 658.144 301.972 658.216 301.468 658.216C299.416 658.216 298.426 657.082 298.426 654.904V650.818H296.248V649.648H298.426V646.57H299.794V649.648H302.944V650.818H299.794V654.904C299.794 656.344 300.406 656.938 301.594 656.938C302.062 656.938 302.584 656.812 303.034 656.65ZM317.635 649.648H319.093L313.441 662.158H311.983L313.729 658.288L309.427 649.648H310.903L314.395 656.83L317.635 649.648ZM324.378 649.432C326.916 649.432 328.806 651.304 328.806 653.824C328.806 656.344 326.916 658.216 324.378 658.216C321.822 658.216 319.932 656.344 319.932 653.824C319.932 651.304 321.822 649.432 324.378 649.432ZM324.378 656.956C326.124 656.956 327.42 655.624 327.42 653.824C327.42 652.024 326.124 650.692 324.378 650.692C322.614 650.692 321.3 652.024 321.3 653.824C321.3 655.624 322.614 656.956 324.378 656.956ZM337.49 649.648H338.858V658H337.49V657.046C336.716 657.784 335.69 658.216 334.502 658.216C332.378 658.216 330.92 656.758 330.92 654.4V649.648H332.288V654.328C332.288 656.02 333.278 656.956 334.754 656.956C335.744 656.956 336.77 656.434 337.49 655.48V649.648ZM351.017 649.432C353.141 649.432 354.599 650.854 354.599 653.212V658H353.231V653.284C353.231 651.592 352.241 650.692 350.765 650.692C349.775 650.692 348.749 651.196 348.029 652.132V658H346.661V649.648H348.029V650.584C348.803 649.846 349.829 649.432 351.017 649.432ZM361.059 649.432C363.741 649.432 365.415 651.502 365.145 654.238H358.161C358.323 655.786 359.385 656.992 361.131 656.992C362.193 656.992 363.003 656.614 363.363 655.912H364.893C364.371 657.352 362.931 658.216 361.131 658.216C358.557 658.216 356.775 656.29 356.775 653.824C356.775 651.358 358.539 649.432 361.059 649.432ZM361.059 650.62C359.403 650.62 358.377 651.79 358.179 653.266H363.777C363.705 651.61 362.643 650.62 361.059 650.62ZM371.554 649.432C374.236 649.432 375.91 651.502 375.64 654.238H368.656C368.818 655.786 369.88 656.992 371.626 656.992C372.688 656.992 373.498 656.614 373.858 655.912H375.388C374.866 657.352 373.426 658.216 371.626 658.216C369.052 658.216 367.27 656.29 367.27 653.824C367.27 651.358 369.034 649.432 371.554 649.432ZM371.554 650.62C369.898 650.62 368.872 651.79 368.674 653.266H374.272C374.2 651.61 373.138 650.62 371.554 650.62ZM385 645.22H386.368V658H385V657.136C384.262 657.82 383.254 658.216 382.066 658.216C379.672 658.216 377.764 656.254 377.764 653.824C377.764 651.376 379.672 649.432 382.066 649.432C383.254 649.432 384.262 649.828 385 650.512V645.22ZM382.246 656.956C383.344 656.956 384.316 656.542 385 655.534V652.114C384.316 651.106 383.344 650.692 382.246 650.692C380.482 650.692 379.132 652.096 379.132 653.824C379.132 655.552 380.482 656.956 382.246 656.956ZM388.567 660.304L389.449 657.982C389.071 657.838 388.873 657.568 388.873 657.226C388.873 656.722 389.269 656.344 389.773 656.344C390.295 656.344 390.691 656.722 390.691 657.226C390.691 657.424 390.691 657.55 390.403 658.108L389.431 660.304H388.567ZM408.273 649.648H409.749L406.707 658H405.465L403.305 651.61L401.145 658H399.903L396.861 649.648H398.337L400.533 655.93L402.711 649.648H403.899L406.077 655.912L408.273 649.648ZM416.179 649.432C418.303 649.432 419.761 650.854 419.761 653.212V658H418.393V653.284C418.393 651.592 417.403 650.692 415.927 650.692C414.937 650.692 413.911 651.196 413.191 652.132V658H411.823V645.22H413.191V650.584C413.965 649.846 414.991 649.432 416.179 649.432ZM426.222 649.432C428.904 649.432 430.578 651.502 430.308 654.238H423.324C423.486 655.786 424.548 656.992 426.294 656.992C427.356 656.992 428.166 656.614 428.526 655.912H430.056C429.534 657.352 428.094 658.216 426.294 658.216C423.72 658.216 421.938 656.29 421.938 653.824C421.938 651.358 423.702 649.432 426.222 649.432ZM426.222 650.62C424.566 650.62 423.54 651.79 423.342 653.266H428.94C428.868 651.61 427.806 650.62 426.222 650.62ZM437.044 649.432C439.168 649.432 440.626 650.854 440.626 653.212V658H439.258V653.284C439.258 651.592 438.268 650.692 436.792 650.692C435.802 650.692 434.776 651.196 434.056 652.132V658H432.688V649.648H434.056V650.584C434.83 649.846 435.856 649.432 437.044 649.432ZM455.412 649.648H456.87L451.218 662.158H449.76L451.506 658.288L447.204 649.648H448.68L452.172 656.83L455.412 649.648ZM462.155 649.432C464.693 649.432 466.583 651.304 466.583 653.824C466.583 656.344 464.693 658.216 462.155 658.216C459.599 658.216 457.709 656.344 457.709 653.824C457.709 651.304 459.599 649.432 462.155 649.432ZM462.155 656.956C463.901 656.956 465.197 655.624 465.197 653.824C465.197 652.024 463.901 650.692 462.155 650.692C460.391 650.692 459.077 652.024 459.077 653.824C459.077 655.624 460.391 656.956 462.155 656.956ZM475.267 649.648H476.635V658H475.267V657.046C474.493 657.784 473.467 658.216 472.279 658.216C470.155 658.216 468.697 656.758 468.697 654.4V649.648H470.065V654.328C470.065 656.02 471.055 656.956 472.531 656.956C473.521 656.956 474.547 656.434 475.267 655.48V649.648ZM488.794 649.432C490.918 649.432 492.376 650.854 492.376 653.212V658H491.008V653.284C491.008 651.592 490.018 650.692 488.542 650.692C487.552 650.692 486.526 651.196 485.806 652.132V658H484.438V649.648H485.806V650.584C486.58 649.846 487.606 649.432 488.794 649.432ZM498.837 649.432C501.519 649.432 503.193 651.502 502.923 654.238H495.939C496.101 655.786 497.163 656.992 498.909 656.992C499.971 656.992 500.781 656.614 501.141 655.912H502.671C502.149 657.352 500.709 658.216 498.909 658.216C496.335 658.216 494.553 656.29 494.553 653.824C494.553 651.358 496.317 649.432 498.837 649.432ZM498.837 650.62C497.181 650.62 496.155 651.79 495.957 653.266H501.555C501.483 651.61 500.421 650.62 498.837 650.62ZM509.331 649.432C512.013 649.432 513.687 651.502 513.417 654.238H506.433C506.595 655.786 507.657 656.992 509.403 656.992C510.465 656.992 511.275 656.614 511.635 655.912H513.165C512.643 657.352 511.203 658.216 509.403 658.216C506.829 658.216 505.047 656.29 505.047 653.824C505.047 651.358 506.811 649.432 509.331 649.432ZM509.331 650.62C507.675 650.62 506.649 651.79 506.451 653.266H512.049C511.977 651.61 510.915 650.62 509.331 650.62ZM522.777 645.22H524.145V658H522.777V657.136C522.039 657.82 521.031 658.216 519.843 658.216C517.449 658.216 515.541 656.254 515.541 653.824C515.541 651.376 517.449 649.432 519.843 649.432C521.031 649.432 522.039 649.828 522.777 650.512V645.22ZM520.023 656.956C521.121 656.956 522.093 656.542 522.777 655.534V652.114C522.093 651.106 521.121 650.692 520.023 650.692C518.259 650.692 516.909 652.096 516.909 653.824C516.909 655.552 518.259 656.956 520.023 656.956ZM532.87 647.416C532.348 647.416 531.952 647.02 531.952 646.516C531.952 645.994 532.348 645.598 532.87 645.598C533.392 645.598 533.806 645.994 533.806 646.516C533.806 647.02 533.392 647.416 532.87 647.416ZM532.204 649.648H533.572V658H532.204V649.648ZM542.097 656.65L542.295 657.91C541.611 658.144 541.035 658.216 540.531 658.216C538.479 658.216 537.489 657.082 537.489 654.904V650.818H535.311V649.648H537.489V646.57H538.857V649.648H542.007V650.818H538.857V654.904C538.857 656.344 539.469 656.938 540.657 656.938C541.125 656.938 541.647 656.812 542.097 656.65Z" fill="#899AB3"/>
<rect x="316" y="817" width="40" height="12" rx="6" fill="#36A1C5"/>
<rect x="362" y="817" width="12" height="12" rx="6" fill="#ECEEEE"/>
<rect x="380" y="817" width="12" height="12" rx="6" fill="#ECEEEE"/>
</g>
<defs>
<linearGradient id="paint0_linear_17_3907" x1="474.365" y1="496.558" x2="815" y2="1038.08" gradientUnits="userSpaceOnUse">
<stop stop-color="white"/>
<stop offset="0.640625" stop-color="white" stop-opacity="0"/>
</linearGradient>
<linearGradient id="paint1_linear_17_3907" x1="39.0063" y1="114.884" x2="392.829" y2="338.711" gradientUnits="userSpaceOnUse">
<stop stop-color="white"/>
<stop offset="0.640625" stop-color="white" stop-opacity="0"/>
</linearGradient>
<clipPath id="clip0_17_3907">
<rect width="708" height="900" fill="white"/>
</clipPath>
</defs>
</svg>
