<svg width="151" height="32" viewBox="0 0 151 32" fill="none" xmlns="http://www.w3.org/2000/svg">
<g id="Group 4">
<g id="Group 3">
<path id="CAMPWOO" d="M2.16492 31.7506H12.4073L7.80801 26.591L12.4073 11.7901L14.7396 19.1905L17.0718 26.591L12.4073 31.7506H22.7312L15.3267 7.93695H9.56944L2.16492 31.7506Z" fill="white"/>
<path id="CAMPWOO_2" d="M0.13636 11.532C0.101554 14.2394 0.750771 16.508 2.08401 18.3376C3.42805 20.1783 5.24952 21.4792 7.54841 22.2403L8.69902 18.2752C7.17334 17.797 5.98 17.001 5.11899 15.8872C4.25798 14.7733 3.83877 13.3375 3.86137 11.5799C3.89182 9.21094 4.69697 7.43608 6.2768 6.25533C7.86743 5.08564 9.95364 4.51739 12.5354 4.55058C15.1171 4.59469 17.1825 5.22177 18.7316 6.43183C20.2916 7.64203 21.0564 9.43161 21.0259 11.8006C21.0033 13.5582 20.5474 14.9827 19.658 16.0741C18.7686 17.1654 17.7629 17.8364 16.2255 18.2752L17.7176 22.2403C20.0463 21.5386 21.249 20.4074 22.629 18.6017C24.0088 16.807 24.7161 14.5559 24.7509 11.8485C24.7811 9.50134 24.2874 7.47502 23.2699 5.76954C22.2632 4.07511 20.8412 2.76296 19.0041 1.83308C17.1777 0.914267 15.0392 0.439107 12.5887 0.407603C10.1491 0.37624 7.99917 0.796268 6.13883 1.66769C4.27835 2.55002 2.81766 3.82512 1.75677 5.49296C0.706669 7.17187 0.166535 9.18489 0.13636 11.532Z" fill="white"/>
</g>
<g id="Group 1">
<g id="Group 2">
<g id="CAMPWOO_3">
<path d="M48.7802 28.0897H51.2804L52.2684 24.9376L55.1114 15.8956L56.5531 20.4166L57.9948 24.9376L58.9928 28.0897H61.4931L56.916 13.5417H53.3572L48.7802 28.0897Z" fill="white"/>
<path d="M65.3321 28.0897H67.6106V18.7648L72.0566 28.0897H73.0244L77.4805 18.7648V28.0897H79.7488V13.5417H77.5611L72.5405 23.8465L67.5198 13.5417H65.3321V28.0897Z" fill="white"/>
<path d="M84.5974 28.0897H87.0271V23.008H90.596C90.7304 23.008 90.9085 23.0012 91.1303 22.9878C91.3589 22.9743 91.5672 22.9541 91.7554 22.9272C93.0055 22.7318 93.933 22.2099 94.5379 21.3612C95.1495 20.5059 95.4554 19.4787 95.4554 18.2799C95.4554 17.0743 95.1529 16.0472 94.548 15.1985C93.9498 14.3432 93.019 13.8178 91.7554 13.6225C91.5672 13.5888 91.3622 13.5686 91.1404 13.5619C90.9186 13.5484 90.7372 13.5417 90.596 13.5417H84.5974V28.0897ZM87.0271 20.7349V15.8249H90.4952C90.6296 15.8249 90.7808 15.8317 90.9489 15.8451C91.1169 15.8586 91.2715 15.8822 91.4126 15.9158C91.8159 16.0169 92.1318 16.1987 92.3603 16.4614C92.5955 16.7173 92.7602 17.0069 92.8543 17.3302C92.9551 17.6535 93.0055 17.9701 93.0055 18.2799C93.0055 18.5897 92.9551 18.9063 92.8543 19.2295C92.7602 19.5528 92.5955 19.8424 92.3603 20.0984C92.1318 20.3543 91.8159 20.5328 91.4126 20.6338C91.2715 20.6742 91.1169 20.7012 90.9489 20.7146C90.7808 20.7281 90.6296 20.7349 90.4952 20.7349H87.0271Z" fill="white"/>
<path d="M102.556 28.0897H104.956L107.911 20.7349L110.884 28.0897H113.283L115.4 20.8157L117.517 13.5417H114.967L112.083 24.0486L107.911 16.8554L103.756 24.0486L100.863 13.5417H98.3119L102.556 28.0897Z" fill="white"/>
<path d="M126.925 28.3927C128.376 28.3927 129.62 28.0762 130.655 27.4431C131.697 26.8032 132.493 25.9142 133.044 24.776C133.602 23.6377 133.881 22.3176 133.881 20.8157C133.881 19.307 133.602 17.9869 133.044 16.8554C132.493 15.7172 131.697 14.8315 130.655 14.1984C129.62 13.5585 128.376 13.2386 126.925 13.2386C125.48 13.2386 124.236 13.5585 123.194 14.1984C122.159 14.8315 121.363 15.7172 120.805 16.8554C120.254 17.9869 119.978 19.307 119.978 20.8157C119.978 22.3176 120.254 23.6377 120.805 24.776C121.363 25.9142 122.159 26.8032 123.194 27.4431C124.236 28.0762 125.48 28.3927 126.925 28.3927ZM126.925 26.0994C125.466 26.0792 124.371 25.5909 123.638 24.6345C122.905 23.6781 122.543 22.4052 122.549 20.8157C122.556 19.7515 122.721 18.8221 123.043 18.0273C123.366 17.2326 123.85 16.6163 124.495 16.1785C125.14 15.734 125.95 15.5185 126.925 15.5319C128.39 15.5521 129.485 16.0404 130.211 16.9968C130.944 17.9532 131.31 19.2262 131.31 20.8157C131.31 21.8731 131.145 22.8026 130.816 23.604C130.494 24.3988 130.006 25.0151 129.354 25.4528C128.709 25.8906 127.899 26.1061 126.925 26.0994Z" fill="white"/>
<path d="M144.044 28.3927C145.495 28.3927 146.739 28.0762 147.774 27.4431C148.816 26.8032 149.612 25.9142 150.163 24.776C150.721 23.6377 151 22.3176 151 20.8157C151 19.307 150.721 17.9869 150.163 16.8554C149.612 15.7172 148.816 14.8315 147.774 14.1984C146.739 13.5585 145.495 13.2386 144.044 13.2386C142.599 13.2386 141.355 13.5585 140.314 14.1984C139.278 14.8315 138.482 15.7172 137.924 16.8554C137.373 17.9869 137.097 19.307 137.097 20.8157C137.097 22.3176 137.373 23.6377 137.924 24.776C138.482 25.9142 139.278 26.8032 140.314 27.4431C141.355 28.0762 142.599 28.3927 144.044 28.3927ZM144.044 26.0994C142.585 26.0792 141.49 25.5909 140.757 24.6345C140.025 23.6781 139.662 22.4052 139.668 20.8157C139.675 19.7515 139.84 18.8221 140.162 18.0273C140.485 17.2326 140.969 16.6163 141.614 16.1785C142.259 15.734 143.069 15.5185 144.044 15.5319C145.509 15.5521 146.604 16.0404 147.33 16.9968C148.063 17.9532 148.429 19.2262 148.429 20.8157C148.429 21.8731 148.265 22.8026 147.935 23.604C147.613 24.3988 147.125 25.0151 146.473 25.4528C145.828 25.8906 145.018 26.1061 144.044 26.0994Z" fill="white"/>
</g>
</g>
<path id="CAMPWOO_4" d="M38.6332 29.1789C40.3001 29.1789 41.6913 28.7613 42.807 27.9262C43.9295 27.0843 44.7158 25.9528 45.1661 24.5316L42.7163 23.8548C42.434 24.7977 41.9535 25.5385 41.2746 26.0774C40.5958 26.6162 39.7153 26.8856 38.6332 26.8856C37.1748 26.8856 36.0759 26.404 35.3366 25.4409C34.604 24.471 34.2377 23.1913 34.2377 21.6018C34.2444 20.0123 34.614 18.736 35.3466 17.7729C36.0792 16.803 37.1748 16.3181 38.6332 16.3181C39.7153 16.3181 40.5958 16.5875 41.2746 17.1263C41.9535 17.6651 42.434 18.406 42.7163 19.3489L45.1661 18.672C44.7158 17.2442 43.9295 16.1127 42.807 15.2775C41.6913 14.4424 40.3001 14.0248 38.6332 14.0248C37.1882 14.0248 35.9448 14.3447 34.903 14.9845C33.868 15.6176 33.0716 16.5033 32.5137 17.6416C31.9626 18.7731 31.687 20.0932 31.687 21.6018C31.687 23.1038 31.9626 24.4239 32.5137 25.5621C33.0716 26.7004 33.868 27.5894 34.903 28.2292C35.9448 28.8624 37.1882 29.1789 38.6332 29.1789Z" fill="white"/>
</g>
</g>
</svg>
