<svg width="206" height="40" viewBox="0 0 206 40" fill="none" xmlns="http://www.w3.org/2000/svg">
<rect width="206" height="40" rx="20" fill="#143566"/>
<path d="M22 16.25C21.2583 16.25 20.5333 16.4699 19.9166 16.882C19.3 17.294 18.8193 17.8797 18.5355 18.5649C18.2516 19.2502 18.1774 20.0042 18.3221 20.7316C18.4668 21.459 18.8239 22.1272 19.3484 22.6516C19.8728 23.1761 20.541 23.5332 21.2684 23.6779C21.9959 23.8226 22.7499 23.7484 23.4351 23.4645C24.1203 23.1807 24.706 22.7001 25.118 22.0834C25.5301 21.4667 25.75 20.7417 25.75 20C25.749 19.0058 25.3536 18.0525 24.6505 17.3495C23.9475 16.6465 22.9943 16.251 22 16.25ZM22 22.5C21.5056 22.5 21.0222 22.3534 20.6111 22.0787C20.2 21.804 19.8795 21.4135 19.6903 20.9567C19.5011 20.4999 19.4516 19.9972 19.5481 19.5123C19.6445 19.0273 19.8826 18.5819 20.2323 18.2322C20.5819 17.8826 21.0273 17.6445 21.5123 17.548C21.9973 17.4516 22.4999 17.5011 22.9567 17.6903C23.4135 17.8795 23.804 18.1999 24.0787 18.6111C24.3534 19.0222 24.5 19.5055 24.5 20C24.5 20.663 24.2366 21.2989 23.7678 21.7678C23.299 22.2366 22.6631 22.5 22 22.5ZM30.5891 18.3758C30.5717 18.2878 30.5355 18.2045 30.4831 18.1317C30.4306 18.0589 30.3632 17.9983 30.2852 17.9539L27.9547 16.6258L27.9453 13.9992C27.9451 13.9088 27.9251 13.8194 27.887 13.7374C27.8488 13.6554 27.7933 13.5827 27.7242 13.5242C26.8789 12.8091 25.9054 12.2611 24.8555 11.9094C24.7728 11.8814 24.6852 11.871 24.5983 11.879C24.5113 11.8869 24.427 11.913 24.3508 11.9555L22 13.2695L19.6469 11.9531C19.5706 11.9104 19.4862 11.8841 19.3991 11.8761C19.3121 11.868 19.2243 11.8783 19.1414 11.9062C18.0923 12.2606 17.1199 12.8107 16.2758 13.5273C16.2069 13.5857 16.1514 13.6583 16.1132 13.7402C16.0751 13.8221 16.0551 13.9112 16.0547 14.0016L16.043 16.6305L13.7125 17.9586C13.6346 18.003 13.5671 18.0636 13.5146 18.1364C13.4622 18.2092 13.426 18.2925 13.4086 18.3805C13.1953 19.4522 13.1953 20.5556 13.4086 21.6273C13.426 21.7154 13.4622 21.7986 13.5146 21.8714C13.5671 21.9442 13.6346 22.0048 13.7125 22.0492L16.043 23.3773L16.0524 26.0039C16.0527 26.0944 16.0726 26.1837 16.1107 26.2657C16.1489 26.3477 16.2044 26.4204 16.2735 26.4789C17.1188 27.194 18.0923 27.742 19.1422 28.0937C19.2249 28.1217 19.3125 28.1321 19.3994 28.1241C19.4864 28.1162 19.5707 28.0902 19.6469 28.0477L22 26.7305L24.3532 28.0469C24.4463 28.0988 24.5512 28.1257 24.6578 28.125C24.7261 28.125 24.7939 28.1139 24.8586 28.0922C25.9076 27.7383 26.88 27.1888 27.7242 26.4727C27.7932 26.4143 27.8486 26.3417 27.8868 26.2598C27.925 26.1779 27.9449 26.0888 27.9453 25.9984L27.9571 23.3695L30.2875 22.0414C30.3655 21.997 30.433 21.9364 30.4854 21.8636C30.5379 21.7908 30.574 21.7075 30.5914 21.6195C30.8035 20.5486 30.8027 19.4464 30.5891 18.3758ZM29.4172 21.1031L27.1852 22.3727C27.0874 22.4283 27.0064 22.5092 26.9508 22.607C26.9055 22.6852 26.8578 22.768 26.8094 22.8461C26.7474 22.9446 26.7144 23.0586 26.7141 23.175L26.7024 25.6945C26.1024 26.1657 25.434 26.5424 24.7203 26.8117L22.4688 25.557C22.3753 25.5053 22.2701 25.4784 22.1633 25.4789H22.1485C22.0539 25.4789 21.9586 25.4789 21.8641 25.4789C21.7523 25.4761 21.6417 25.5031 21.5438 25.557L19.2907 26.8148C18.5754 26.5476 17.9052 26.1727 17.3032 25.7031L17.2946 23.1875C17.2942 23.0709 17.2612 22.9567 17.1992 22.8578C17.1508 22.7797 17.1032 22.7016 17.0586 22.6187C17.0034 22.5194 16.9224 22.4369 16.8242 22.3797L14.5899 21.107C14.4742 20.3756 14.4742 19.6306 14.5899 18.8992L16.818 17.6273C16.9158 17.5717 16.9968 17.4908 17.0524 17.393C17.0977 17.3148 17.1453 17.232 17.1938 17.1539C17.2558 17.0554 17.2888 16.9414 17.2891 16.825L17.3008 14.3055C17.9008 13.8343 18.5691 13.4576 19.2828 13.1883L21.5313 14.443C21.6291 14.4972 21.7397 14.5242 21.8516 14.5211C21.9461 14.5211 22.0414 14.5211 22.136 14.5211C22.2478 14.5239 22.3583 14.4969 22.4563 14.443L24.7094 13.1852C25.4246 13.4524 26.0949 13.8273 26.6969 14.2969L26.7055 16.8125C26.7059 16.9291 26.7389 17.0433 26.8008 17.1422C26.8492 17.2203 26.8969 17.2984 26.9414 17.3812C26.9966 17.4806 27.0776 17.5631 27.1758 17.6203L29.4102 18.893C29.5274 19.6249 29.5287 20.3708 29.4141 21.1031H29.4172Z" fill="white"/>
<path d="M48.634 14.812C50.51 14.812 52.134 15.638 52.372 17.598H51.266C51.056 16.464 50.258 15.764 48.704 15.764C47.304 15.764 46.394 16.394 46.394 17.472C46.394 18.312 46.996 18.788 48.13 19.012L49.684 19.306C51.392 19.642 52.358 20.412 52.358 21.812C52.358 23.548 50.93 24.668 48.788 24.668C46.506 24.668 45.022 23.506 44.812 21.448H45.904C46.128 22.876 47.15 23.674 48.844 23.674C50.3 23.674 51.224 23.016 51.224 21.938C51.224 21.182 50.706 20.594 49.502 20.384L47.724 20.034C46.03 19.712 45.218 18.844 45.218 17.542C45.218 15.876 46.59 14.812 48.634 14.812ZM57.2085 17.836C59.2945 17.836 60.5965 19.446 60.3865 21.574H54.9545C55.0805 22.778 55.9065 23.716 57.2645 23.716C58.0905 23.716 58.7205 23.422 59.0005 22.876H60.1905C59.7845 23.996 58.6645 24.668 57.2645 24.668C55.2625 24.668 53.8765 23.17 53.8765 21.252C53.8765 19.334 55.2485 17.836 57.2085 17.836ZM57.2085 18.76C55.9205 18.76 55.1225 19.67 54.9685 20.818H59.3225C59.2665 19.53 58.4405 18.76 57.2085 18.76ZM66.5055 23.45L66.6595 24.43C66.1275 24.612 65.6795 24.668 65.2875 24.668C63.6915 24.668 62.9215 23.786 62.9215 22.092V18.914H61.2275V18.004H62.9215V15.61H63.9855V18.004H66.4355V18.914H63.9855V22.092C63.9855 23.212 64.4615 23.674 65.3855 23.674C65.7495 23.674 66.1555 23.576 66.5055 23.45ZM72.4938 23.45L72.6478 24.43C72.1158 24.612 71.6678 24.668 71.2758 24.668C69.6798 24.668 68.9098 23.786 68.9098 22.092V18.914H67.2158V18.004H68.9098V15.61H69.9738V18.004H72.4238V18.914H69.9738V22.092C69.9738 23.212 70.4498 23.674 71.3738 23.674C71.7378 23.674 72.1438 23.576 72.4938 23.45ZM75.0925 16.268C74.6865 16.268 74.3785 15.96 74.3785 15.568C74.3785 15.162 74.6865 14.854 75.0925 14.854C75.4985 14.854 75.8205 15.162 75.8205 15.568C75.8205 15.96 75.4985 16.268 75.0925 16.268ZM74.5745 18.004H75.6385V24.5H74.5745V18.004ZM81.4852 17.836C83.1372 17.836 84.2712 18.942 84.2712 20.776V24.5H83.2072V20.832C83.2072 19.516 82.4372 18.816 81.2892 18.816C80.5192 18.816 79.7212 19.208 79.1612 19.936V24.5H78.0972V18.004H79.1612V18.732C79.7632 18.158 80.5612 17.836 81.4852 17.836ZM91.4966 18.004H92.5606V24.822C92.5606 26.726 91.2586 27.888 89.3266 27.888C87.5346 27.888 86.2466 26.88 86.0226 25.438H87.1146C87.2966 26.32 88.1086 26.922 89.3266 26.922C90.6286 26.922 91.4966 26.138 91.4966 24.822V23.604C90.8946 24.136 90.0826 24.444 89.1446 24.444C87.2826 24.444 85.8686 22.96 85.8686 21.168C85.8686 19.25 87.2826 17.836 89.1446 17.836C90.0826 17.836 90.8946 18.144 91.4966 18.676V18.004ZM89.2846 23.506C90.1386 23.506 90.9506 23.156 91.4966 22.358V19.922C90.9506 19.124 90.1386 18.774 89.2846 18.774C87.9126 18.774 86.9326 19.796 86.9326 21.168C86.9326 22.414 87.9126 23.506 89.2846 23.506ZM95.2956 22.456C95.4916 23.324 96.1636 23.786 97.3536 23.786C98.3616 23.786 99.0476 23.408 99.0476 22.75C99.0476 22.204 98.6136 21.882 97.9836 21.77L96.5136 21.532C95.4496 21.35 94.5816 20.874 94.5816 19.768C94.5816 18.564 95.6456 17.836 97.2136 17.836C98.5716 17.836 99.9156 18.354 100.042 19.894H99.0476C98.9356 19.082 98.2496 18.704 97.2136 18.704C96.2336 18.704 95.6456 19.082 95.6456 19.67C95.6456 20.146 95.9676 20.496 96.8496 20.65L98.1376 20.86C99.0756 21.014 100.07 21.434 100.07 22.68C100.07 23.954 98.9216 24.668 97.3256 24.668C95.6736 24.668 94.4976 23.982 94.3016 22.456H95.2956Z" fill="white"/>
<path d="M190.692 17.9422L184.442 24.1922C184.384 24.2503 184.315 24.2964 184.239 24.3279C184.163 24.3593 184.082 24.3755 184 24.3755C183.918 24.3755 183.837 24.3593 183.761 24.3279C183.685 24.2964 183.616 24.2503 183.558 24.1922L177.308 17.9422C177.191 17.8249 177.125 17.6659 177.125 17.5C177.125 17.3342 177.191 17.1751 177.308 17.0578C177.425 16.9405 177.584 16.8747 177.75 16.8747C177.916 16.8747 178.075 16.9405 178.192 17.0578L184 22.8664L189.808 17.0578C189.866 16.9998 189.935 16.9537 190.011 16.9223C190.087 16.8908 190.168 16.8747 190.25 16.8747C190.332 16.8747 190.413 16.8908 190.489 16.9223C190.565 16.9537 190.634 16.9998 190.692 17.0578C190.75 17.1159 190.796 17.1848 190.828 17.2607C190.859 17.3366 190.875 17.4179 190.875 17.5C190.875 17.5821 190.859 17.6635 190.828 17.7393C190.796 17.8152 190.75 17.8841 190.692 17.9422Z" fill="white"/>
</svg>
