<svg width="206" height="40" viewBox="0 0 206 40" fill="none" xmlns="http://www.w3.org/2000/svg">
<rect width="206" height="40" rx="20" fill="#143566"/>
<path d="M20.75 26.875C20.75 27.0408 20.6842 27.1997 20.5669 27.3169C20.4497 27.4342 20.2908 27.5 20.125 27.5H15.75C15.4185 27.5 15.1005 27.3683 14.8661 27.1339C14.6317 26.8995 14.5 26.5815 14.5 26.25V13.75C14.5 13.4185 14.6317 13.1005 14.8661 12.8661C15.1005 12.6317 15.4185 12.5 15.75 12.5H20.125C20.2908 12.5 20.4497 12.5658 20.5669 12.6831C20.6842 12.8003 20.75 12.9592 20.75 13.125C20.75 13.2908 20.6842 13.4497 20.5669 13.5669C20.4497 13.6842 20.2908 13.75 20.125 13.75H15.75V26.25H20.125C20.2908 26.25 20.4497 26.3158 20.5669 26.4331C20.6842 26.5503 20.75 26.7092 20.75 26.875ZM29.3172 19.5578L26.1922 16.4328C26.0749 16.3155 25.9159 16.2497 25.75 16.2497C25.5841 16.2497 25.4251 16.3155 25.3078 16.4328C25.1905 16.5501 25.1247 16.7091 25.1247 16.875C25.1247 17.0409 25.1905 17.1999 25.3078 17.3172L27.3664 19.375H20.125C19.9592 19.375 19.8003 19.4408 19.6831 19.5581C19.5658 19.6753 19.5 19.8342 19.5 20C19.5 20.1658 19.5658 20.3247 19.6831 20.4419C19.8003 20.5592 19.9592 20.625 20.125 20.625H27.3664L25.3078 22.6828C25.1905 22.8001 25.1247 22.9591 25.1247 23.125C25.1247 23.2909 25.1905 23.4499 25.3078 23.5672C25.4251 23.6845 25.5841 23.7503 25.75 23.7503C25.9159 23.7503 26.0749 23.6845 26.1922 23.5672L29.3172 20.4422C29.3753 20.3841 29.4214 20.3152 29.4529 20.2393C29.4843 20.1635 29.5005 20.0821 29.5005 20C29.5005 19.9179 29.4843 19.8365 29.4529 19.7607C29.4214 19.6848 29.3753 19.6159 29.3172 19.5578Z" fill="white"/>
<path d="M46.408 23.478H51.658V24.5H45.302V14.98H46.408V23.478ZM56.3638 17.836C58.3378 17.836 59.8077 19.292 59.8077 21.252C59.8077 23.212 58.3378 24.668 56.3638 24.668C54.3758 24.668 52.9058 23.212 52.9058 21.252C52.9058 19.292 54.3758 17.836 56.3638 17.836ZM56.3638 23.688C57.7218 23.688 58.7298 22.652 58.7298 21.252C58.7298 19.852 57.7218 18.816 56.3638 18.816C54.9918 18.816 53.9698 19.852 53.9698 21.252C53.9698 22.652 54.9918 23.688 56.3638 23.688ZM66.942 18.004H68.006V24.822C68.006 26.726 66.704 27.888 64.772 27.888C62.98 27.888 61.692 26.88 61.468 25.438H62.56C62.742 26.32 63.554 26.922 64.772 26.922C66.074 26.922 66.942 26.138 66.942 24.822V23.604C66.34 24.136 65.528 24.444 64.59 24.444C62.728 24.444 61.314 22.96 61.314 21.168C61.314 19.25 62.728 17.836 64.59 17.836C65.528 17.836 66.34 18.144 66.942 18.676V18.004ZM64.73 23.506C65.584 23.506 66.396 23.156 66.942 22.358V19.922C66.396 19.124 65.584 18.774 64.73 18.774C63.358 18.774 62.378 19.796 62.378 21.168C62.378 22.414 63.358 23.506 64.73 23.506ZM73.2485 17.836C75.2225 17.836 76.6925 19.292 76.6925 21.252C76.6925 23.212 75.2225 24.668 73.2485 24.668C71.2605 24.668 69.7905 23.212 69.7905 21.252C69.7905 19.292 71.2605 17.836 73.2485 17.836ZM73.2485 23.688C74.6065 23.688 75.6145 22.652 75.6145 21.252C75.6145 19.852 74.6065 18.816 73.2485 18.816C71.8765 18.816 70.8545 19.852 70.8545 21.252C70.8545 22.652 71.8765 23.688 73.2485 23.688ZM83.4471 18.004H84.5111V24.5H83.4471V23.758C82.8451 24.332 82.0471 24.668 81.1231 24.668C79.4711 24.668 78.3371 23.534 78.3371 21.7V18.004H79.4011V21.644C79.4011 22.96 80.1711 23.688 81.3191 23.688C82.0891 23.688 82.8871 23.282 83.4471 22.54V18.004ZM90.9782 23.45L91.1322 24.43C90.6002 24.612 90.1522 24.668 89.7602 24.668C88.1642 24.668 87.3942 23.786 87.3942 22.092V18.914H85.7002V18.004H87.3942V15.61H88.4582V18.004H90.9082V18.914H88.4582V22.092C88.4582 23.212 88.9342 23.674 89.8582 23.674C90.2222 23.674 90.6282 23.576 90.9782 23.45Z" fill="white"/>
</svg>
