<svg width="206" height="40" viewBox="0 0 206 40" fill="none" xmlns="http://www.w3.org/2000/svg">
<rect width="206" height="40" rx="20" fill="#143566"/>
<path d="M21.0758 18.3672C21.3211 18.6119 21.6535 18.7494 22 18.7494C22.3466 18.7494 22.6789 18.6119 22.9242 18.3672L25.3672 15.9234C25.4886 15.8021 25.5848 15.6581 25.6505 15.4996C25.7162 15.3411 25.75 15.1712 25.75 14.9996C25.75 14.828 25.7162 14.6581 25.6505 14.4996C25.5848 14.3411 25.4886 14.1971 25.3672 14.0758L22.9242 11.632C22.6789 11.3873 22.3466 11.2498 22 11.2498C21.6535 11.2498 21.3211 11.3873 21.0758 11.632L18.6328 14.0758C18.5115 14.1971 18.4152 14.3411 18.3496 14.4996C18.2839 14.6581 18.2501 14.828 18.2501 14.9996C18.2501 15.1712 18.2839 15.3411 18.3496 15.4996C18.4152 15.6581 18.5115 15.8021 18.6328 15.9234L21.0758 18.3672ZM19.5133 14.9594L21.9571 12.5164C21.9674 12.5061 21.9815 12.5003 21.9961 12.5003C22.0108 12.5003 22.0248 12.5061 22.0352 12.5164L24.4789 14.9594C24.4887 14.97 24.4941 14.984 24.4941 14.9984C24.4941 15.0129 24.4887 15.0268 24.4789 15.0375L22.0399 17.4836C22.0294 17.4937 22.0154 17.4994 22.0008 17.4994C21.9862 17.4994 21.9722 17.4937 21.9617 17.4836L19.5164 15.0398C19.506 15.0291 19.5001 15.0146 19.5001 14.9996C19.5001 14.9846 19.506 14.9702 19.5164 14.9594H19.5133ZM30.3649 19.0758L27.9242 16.632C27.6791 16.3873 27.3468 16.2499 27.0004 16.2499C26.654 16.2499 26.3218 16.3873 26.0766 16.632L23.6328 19.0758C23.3881 19.3211 23.2507 19.6535 23.2507 20C23.2507 20.3465 23.3881 20.6789 23.6328 20.9242L26.0766 23.368C26.3218 23.6127 26.654 23.7501 27.0004 23.7501C27.3468 23.7501 27.6791 23.6127 27.9242 23.368L30.368 20.9242C30.6127 20.6789 30.7502 20.3465 30.7502 20C30.7502 19.6535 30.6127 19.3211 30.368 19.0758H30.3649ZM29.4844 20.0398L27.0407 22.4836C27.03 22.4934 27.0161 22.4988 27.0016 22.4988C26.9871 22.4988 26.9732 22.4934 26.9625 22.4836L24.5188 20.0398C24.5087 20.0294 24.503 20.0154 24.503 20.0008C24.503 19.9862 24.5087 19.9722 24.5188 19.9617L26.9625 17.518C26.9732 17.5082 26.9871 17.5028 27.0016 17.5028C27.0161 17.5028 27.03 17.5082 27.0407 17.518L29.4844 19.9617C29.4945 19.9722 29.5002 19.9862 29.5002 20.0008C29.5002 20.0154 29.4945 20.0294 29.4844 20.0398ZM20.3672 19.0758L17.9235 16.632C17.6783 16.3873 17.346 16.2499 16.9996 16.2499C16.6532 16.2499 16.321 16.3873 16.0758 16.632L13.6321 19.0758C13.3873 19.3211 13.2499 19.6535 13.2499 20C13.2499 20.3465 13.3873 20.6789 13.6321 20.9242L16.0758 23.368C16.321 23.6127 16.6532 23.7501 16.9996 23.7501C17.346 23.7501 17.6783 23.6127 17.9235 23.368L20.3672 20.9242C20.612 20.6789 20.7494 20.3465 20.7494 20C20.7494 19.6535 20.612 19.3211 20.3672 19.0758ZM19.4836 20.0398L17.0399 22.4836C17.0292 22.4934 17.0153 22.4988 17.0008 22.4988C16.9863 22.4988 16.9724 22.4934 16.9617 22.4836L14.5157 20.0398C14.5055 20.0294 14.4999 20.0154 14.4999 20.0008C14.4999 19.9862 14.5055 19.9722 14.5157 19.9617L16.9594 17.5164C16.9701 17.5066 16.984 17.5012 16.9985 17.5012C17.0129 17.5012 17.0269 17.5066 17.0375 17.5164L19.4813 19.9602C19.4867 19.9652 19.491 19.9713 19.4941 19.9781C19.4971 19.9848 19.4988 19.9921 19.499 19.9995C19.4992 20.0069 19.498 20.0143 19.4953 20.0212C19.4927 20.0281 19.4887 20.0345 19.4836 20.0398ZM22.9211 21.6328C22.6758 21.3881 22.3434 21.2506 21.9969 21.2506C21.6504 21.2506 21.318 21.3881 21.0727 21.6328L18.6328 24.0766C18.5115 24.1979 18.4152 24.3419 18.3496 24.5004C18.2839 24.6589 18.2501 24.8288 18.2501 25.0004C18.2501 25.172 18.2839 25.3419 18.3496 25.5004C18.4152 25.6589 18.5115 25.8029 18.6328 25.9242L21.0758 28.368C21.3211 28.6127 21.6535 28.7501 22 28.7501C22.3466 28.7501 22.6789 28.6127 22.9242 28.368L25.3672 25.9242C25.4886 25.8029 25.5848 25.6589 25.6505 25.5004C25.7162 25.3419 25.75 25.172 25.75 25.0004C25.75 24.8288 25.7162 24.6589 25.6505 24.5004C25.5848 24.3419 25.4886 24.1979 25.3672 24.0766L22.9211 21.6328ZM24.4836 25.0406L22.0399 27.4836C22.0295 27.4939 22.0154 27.4997 22.0008 27.4997C21.9862 27.4997 21.9721 27.4939 21.9617 27.4836L19.5164 25.0406C19.5067 25.03 19.5012 25.016 19.5012 25.0016C19.5012 24.9871 19.5067 24.9732 19.5164 24.9625L21.9602 22.5187C21.9707 22.5086 21.9847 22.503 21.9992 22.503C22.0138 22.503 22.0278 22.5086 22.0383 22.5187L24.4821 24.9625C24.492 24.973 24.4977 24.9868 24.498 25.0013C24.4983 25.0157 24.4932 25.0298 24.4836 25.0406Z" fill="white"/>
<path d="M48.648 14.98C51.588 14.98 53.674 16.926 53.674 19.67C53.674 22.498 51.588 24.5 48.648 24.5H45.302V14.98H48.648ZM48.648 23.478C50.916 23.478 52.54 21.896 52.54 19.67C52.54 17.542 50.916 16.002 48.648 16.002H46.408V23.478H48.648ZM60.7623 18.004H61.8263V24.5H60.7623V23.828C60.1883 24.36 59.4043 24.668 58.4803 24.668C56.6183 24.668 55.1343 23.156 55.1343 21.252C55.1343 19.362 56.6183 17.836 58.4803 17.836C59.4043 17.836 60.1883 18.144 60.7623 18.676V18.004ZM58.6203 23.688C59.4743 23.688 60.2303 23.366 60.7623 22.582V19.922C60.2303 19.138 59.4743 18.816 58.6203 18.816C57.2483 18.816 56.1983 19.908 56.1983 21.252C56.1983 22.596 57.2483 23.688 58.6203 23.688ZM64.6706 22.456C64.8666 23.324 65.5386 23.786 66.7286 23.786C67.7366 23.786 68.4226 23.408 68.4226 22.75C68.4226 22.204 67.9886 21.882 67.3586 21.77L65.8886 21.532C64.8246 21.35 63.9566 20.874 63.9566 19.768C63.9566 18.564 65.0206 17.836 66.5886 17.836C67.9466 17.836 69.2906 18.354 69.4166 19.894H68.4226C68.3106 19.082 67.6246 18.704 66.5886 18.704C65.6086 18.704 65.0206 19.082 65.0206 19.67C65.0206 20.146 65.3426 20.496 66.2246 20.65L67.5126 20.86C68.4506 21.014 69.4446 21.434 69.4446 22.68C69.4446 23.954 68.2966 24.668 66.7006 24.668C65.0486 24.668 63.8726 23.982 63.6766 22.456H64.6706ZM74.868 17.836C76.52 17.836 77.654 18.942 77.654 20.776V24.5H76.59V20.832C76.59 19.516 75.82 18.816 74.672 18.816C73.902 18.816 73.104 19.208 72.544 19.936V24.5H71.48V14.56H72.544V18.732C73.146 18.158 73.944 17.836 74.868 17.836ZM83.0292 17.836C84.8912 17.836 86.3752 19.348 86.3752 21.252C86.3752 23.142 84.8912 24.668 83.0292 24.668C82.1052 24.668 81.3212 24.36 80.7472 23.828V24.5H79.6832V14.56H80.7472V18.676C81.3212 18.144 82.1052 17.836 83.0292 17.836ZM82.8892 23.688C84.2612 23.688 85.3112 22.596 85.3112 21.252C85.3112 19.908 84.2612 18.816 82.8892 18.816C82.0352 18.816 81.2792 19.138 80.7472 19.922V22.582C81.2792 23.366 82.0352 23.688 82.8892 23.688ZM91.4595 17.836C93.4335 17.836 94.9035 19.292 94.9035 21.252C94.9035 23.212 93.4335 24.668 91.4595 24.668C89.4715 24.668 88.0015 23.212 88.0015 21.252C88.0015 19.292 89.4715 17.836 91.4595 17.836ZM91.4595 23.688C92.8175 23.688 93.8255 22.652 93.8255 21.252C93.8255 19.852 92.8175 18.816 91.4595 18.816C90.0875 18.816 89.0655 19.852 89.0655 21.252C89.0655 22.652 90.0875 23.688 91.4595 23.688ZM102.147 18.004H103.211V24.5H102.147V23.828C101.573 24.36 100.789 24.668 99.865 24.668C98.003 24.668 96.519 23.156 96.519 21.252C96.519 19.362 98.003 17.836 99.865 17.836C100.789 17.836 101.573 18.144 102.147 18.676V18.004ZM100.005 23.688C100.859 23.688 101.615 23.366 102.147 22.582V19.922C101.615 19.138 100.859 18.816 100.005 18.816C98.633 18.816 97.583 19.908 97.583 21.252C97.583 22.596 98.633 23.688 100.005 23.688ZM106.573 19.068C107.175 18.298 108.043 17.85 109.079 17.85V18.858C108.015 18.886 107.147 19.376 106.573 20.272V24.5H105.509V18.004H106.573V19.068ZM115.655 14.56H116.719V24.5H115.655V23.828C115.081 24.36 114.297 24.668 113.373 24.668C111.511 24.668 110.027 23.142 110.027 21.252C110.027 19.348 111.511 17.836 113.373 17.836C114.297 17.836 115.081 18.144 115.655 18.676V14.56ZM113.513 23.688C114.367 23.688 115.123 23.366 115.655 22.582V19.922C115.123 19.138 114.367 18.816 113.513 18.816C112.141 18.816 111.091 19.908 111.091 21.252C111.091 22.596 112.141 23.688 113.513 23.688Z" fill="white"/>
</svg>
