<svg width="40" height="40" viewBox="0 0 40 40" fill="none" xmlns="http://www.w3.org/2000/svg">
<rect width="40" height="40" rx="20" fill="#F7FBFD"/>
<path d="M27.3281 23.7453C26.8945 22.9984 26.25 20.8852 26.25 18.125C26.25 16.4674 25.5915 14.8777 24.4194 13.7056C23.2473 12.5335 21.6576 11.875 20 11.875C18.3424 11.875 16.7527 12.5335 15.5806 13.7056C14.4085 14.8777 13.75 16.4674 13.75 18.125C13.75 20.8859 13.1047 22.9984 12.6711 23.7453C12.5604 23.9352 12.5017 24.1509 12.5009 24.3707C12.5002 24.5905 12.5574 24.8066 12.6668 24.9973C12.7762 25.1879 12.934 25.3463 13.1241 25.4565C13.3143 25.5667 13.5302 25.6248 13.75 25.625H16.9383C17.0825 26.3306 17.466 26.9647 18.0239 27.4201C18.5818 27.8756 19.2798 28.1243 20 28.1243C20.7202 28.1243 21.4182 27.8756 21.9761 27.4201C22.534 26.9647 22.9175 26.3306 23.0617 25.625H26.25C26.4697 25.6247 26.6855 25.5665 26.8756 25.4562C27.0656 25.346 27.2233 25.1875 27.3326 24.9969C27.4419 24.8063 27.4991 24.5903 27.4983 24.3705C27.4975 24.1508 27.4388 23.9351 27.3281 23.7453ZM20 26.875C19.6124 26.8749 19.2343 26.7546 18.9178 26.5308C18.6013 26.3069 18.362 25.9905 18.2328 25.625H21.7672C21.638 25.9905 21.3987 26.3069 21.0822 26.5308C20.7657 26.7546 20.3876 26.8749 20 26.875ZM13.75 24.375C14.3516 23.3406 15 20.9438 15 18.125C15 16.7989 15.5268 15.5271 16.4645 14.5895C17.4021 13.6518 18.6739 13.125 20 13.125C21.3261 13.125 22.5979 13.6518 23.5355 14.5895C24.4732 15.5271 25 16.7989 25 18.125C25 20.9414 25.6469 23.3383 26.25 24.375H13.75Z" fill="#131515"/>
<circle cx="27" cy="15" r="4" fill="#D66F0F" stroke="white" stroke-width="2"/>
</svg>
